<svg width="22" height="36" viewBox="0 0 22 36" fill="none" xmlns="http://www.w3.org/2000/svg">
<g clip-path="url(#clip0_186_934)">
<path d="M7.20002 32.4C6.20592 32.4 5.40002 31.5941 5.40002 30.6V19.8C5.40002 18.8059 6.20592 18 7.20002 18H12.6C17.5706 18 21.6 22.0295 21.6 27C21.6 29.9824 19.1824 32.4 16.2 32.4H7.20002Z" fill="#E3B593"/>
<path d="M10.8 18C9.8059 18 9 18.8059 9 19.8C9 20.7941 9.8059 21.6 10.8 21.6H16.65C17.3956 21.6 18 20.9956 18 20.25C18 19.0073 16.9926 18 15.75 18H10.8Z" fill="#E3B593"/>
<path d="M10.8 32.4C8.81179 32.4 7.20001 30.7883 7.20001 28.8V21.6C7.20001 19.6117 8.81179 18 10.8 18H12.6C17.5706 18 21.6 22.0295 21.6 27C21.6 29.9824 19.1824 32.4 16.2 32.4H10.8Z" fill="#CF9265"/>
<path d="M7.19998 30.6C7.19998 29.6059 6.39409 28.8 5.39998 28.8C4.40586 28.8 3.59998 29.6059 3.59998 30.6C3.59998 31.5941 4.40586 32.4 5.39998 32.4C6.39409 32.4 7.19998 31.5941 7.19998 30.6Z" fill="#E3B593"/>
<path d="M7.19998 27C7.19998 26.0059 6.39409 25.2 5.39998 25.2C4.40586 25.2 3.59998 26.0059 3.59998 27C3.59998 27.9941 4.40586 28.8 5.39998 28.8C6.39409 28.8 7.19998 27.9941 7.19998 27Z" fill="#E3B593"/>
<path d="M7.19998 23.4C7.19998 22.4059 6.39409 21.6 5.39998 21.6C4.40586 21.6 3.59998 22.4059 3.59998 23.4C3.59998 24.3941 4.40586 25.2 5.39998 25.2C6.39409 25.2 7.19998 24.3941 7.19998 23.4Z" fill="#E3B593"/>
<path d="M7.19998 19.8C7.19998 18.8059 6.39409 18 5.39998 18C4.40586 18 3.59998 18.8059 3.59998 19.8C3.59998 20.7941 4.40586 21.6 5.39998 21.6C6.39409 21.6 7.19998 20.7941 7.19998 19.8Z" fill="#E3B593"/>
<path d="M19.8 14.4H0V18H19.8V14.4Z" fill="#A34C50"/>
<path d="M16.2 0H3.59998V14.4H16.2V0Z" fill="#BBD0E4"/>
<path d="M10.8 0H9V14.4H10.8V0Z" fill="#BCC0C3"/>
<path d="M12.6 32.4H7.20001V36H12.6V32.4Z" fill="#A34C50"/>
</g>
<defs>
<clipPath id="clip0_186_934">
<rect width="21.6" height="36" fill="white"/>
</clipPath>
</defs>
</svg>
