<svg width="18" height="36" viewBox="0 0 18 36" fill="none" xmlns="http://www.w3.org/2000/svg">
<g clip-path="url(#clip0_186_946)">
<path d="M7.02857 23.1429C6.3185 23.1429 5.74286 22.5672 5.74286 21.8571V14.1429C5.74286 13.4328 6.3185 12.8571 7.02857 12.8571H10.8857C14.4361 12.8571 17.3143 15.7353 17.3143 19.2857C17.3143 21.416 15.5874 23.1429 13.4571 23.1429H7.02857Z" fill="#E3B593"/>
<path d="M9.59998 12.8571C8.88991 12.8571 8.31427 13.4328 8.31427 14.1429C8.31427 14.853 8.88991 15.4286 9.59998 15.4286H13.7786C14.3111 15.4286 14.7428 14.9968 14.7428 14.4643C14.7428 13.5766 14.0234 12.8571 13.1357 12.8571H9.59998Z" fill="#E3B593"/>
<path d="M9.59999 23.1429C8.17983 23.1429 7.02856 21.9916 7.02856 20.5714V15.4286C7.02856 14.0084 8.17983 12.8571 9.59999 12.8571H10.8857C14.4361 12.8571 17.3143 15.7353 17.3143 19.2857C17.3143 21.416 15.5874 23.1429 13.4571 23.1429H9.59999Z" fill="#CF9265"/>
<path d="M7.02852 21.8571C7.02852 21.1471 6.45289 20.5714 5.74281 20.5714C5.03273 20.5714 4.45709 21.1471 4.45709 21.8571C4.45709 22.5672 5.03273 23.1429 5.74281 23.1429C6.45289 23.1429 7.02852 22.5672 7.02852 21.8571Z" fill="#E3B593"/>
<path d="M7.02852 19.2857C7.02852 18.5756 6.45289 18 5.74281 18C5.03273 18 4.45709 18.5756 4.45709 19.2857C4.45709 19.9958 5.03273 20.5714 5.74281 20.5714C6.45289 20.5714 7.02852 19.9958 7.02852 19.2857Z" fill="#E3B593"/>
<path d="M7.02852 16.7143C7.02852 16.0042 6.45289 15.4286 5.74281 15.4286C5.03273 15.4286 4.45709 16.0042 4.45709 16.7143C4.45709 17.4244 5.03273 18 5.74281 18C6.45289 18 7.02852 17.4244 7.02852 16.7143Z" fill="#E3B593"/>
<path d="M7.02852 14.1429C7.02852 13.4328 6.45289 12.8571 5.74281 12.8571C5.03273 12.8571 4.45709 13.4328 4.45709 14.1429C4.45709 14.8529 5.03273 15.4286 5.74281 15.4286C6.45289 15.4286 7.02852 14.8529 7.02852 14.1429Z" fill="#E3B593"/>
<path d="M10.8857 33.4286C11.5958 33.4286 12.1714 32.853 12.1714 32.1429V24.4286C12.1714 23.7185 11.5958 23.1429 10.8857 23.1429H7.02855C3.47815 23.1429 0.599976 26.0211 0.599976 29.5714C0.599976 31.7017 2.32688 33.4286 4.45712 33.4286H10.8857Z" fill="#E3B593"/>
<path d="M8.31424 23.1429C9.02432 23.1429 9.59996 23.7185 9.59996 24.4286C9.59996 25.1387 9.02432 25.7143 8.31424 25.7143H4.13567C3.60312 25.7143 3.17139 25.2825 3.17139 24.75C3.17139 23.8623 3.89092 23.1429 4.77853 23.1429H8.31424Z" fill="#E3B593"/>
<path d="M8.31426 33.4286C9.73442 33.4286 10.8857 32.2773 10.8857 30.8571V25.7143C10.8857 24.2941 9.73442 23.1429 8.31426 23.1429H7.02855C3.47815 23.1429 0.599976 26.0211 0.599976 29.5714C0.599976 31.7017 2.32688 33.4286 4.45712 33.4286H8.31426Z" fill="#CF9265"/>
<path d="M10.8857 32.1429C10.8857 31.4328 11.4613 30.8571 12.1714 30.8571C12.8815 30.8571 13.4571 31.4328 13.4571 32.1429C13.4571 32.8529 12.8815 33.4286 12.1714 33.4286C11.4613 33.4286 10.8857 32.8529 10.8857 32.1429Z" fill="#E3B593"/>
<path d="M10.8857 29.5714C10.8857 28.8614 11.4613 28.2857 12.1714 28.2857C12.8815 28.2857 13.4571 28.8614 13.4571 29.5714C13.4571 30.2815 12.8815 30.8571 12.1714 30.8571C11.4613 30.8571 10.8857 30.2815 10.8857 29.5714Z" fill="#E3B593"/>
<path d="M10.8857 27C10.8857 26.2899 11.4613 25.7143 12.1714 25.7143C12.8815 25.7143 13.4571 26.2899 13.4571 27C13.4571 27.7101 12.8815 28.2857 12.1714 28.2857C11.4613 28.2857 10.8857 27.7101 10.8857 27Z" fill="#E3B593"/>
<path d="M10.8857 24.4286C10.8857 23.7185 11.4613 23.1429 12.1714 23.1429C12.8815 23.1429 13.4571 23.7185 13.4571 24.4286C13.4571 25.1386 12.8815 25.7143 12.1714 25.7143C11.4613 25.7143 10.8857 25.1386 10.8857 24.4286Z" fill="#E3B593"/>
<path d="M16.0285 10.2857H1.88568V12.8571H16.0285V10.2857Z" fill="#A34C50"/>
<path d="M13.4571 0H4.45709V10.2857H13.4571V0Z" fill="#BBD0E4"/>
<path d="M9.59998 0H8.31427V10.2857H9.59998V0Z" fill="#BCC0C3"/>
<path d="M10.8857 33.4286H7.02856V36H10.8857V33.4286Z" fill="#A34C50"/>
</g>
<defs>
<clipPath id="clip0_186_946">
<rect width="16.7143" height="36" fill="white" transform="translate(0.599976)"/>
</clipPath>
</defs>
</svg>
