<svg width="13" height="28" viewBox="0 0 13 28" fill="none" xmlns="http://www.w3.org/2000/svg">
<path d="M5 18C4.44772 18 4 17.5523 4 17V11C4 10.4477 4.44772 10 5 10H8C10.7614 10 13 12.2386 13 15V15C13 16.6569 11.6569 18 10 18H5Z" fill="#E3B593"/>
<path d="M7 10C6.44772 10 6 10.4477 6 11V11C6 11.5523 6.44772 12 7 12H10.25C10.6642 12 11 11.6642 11 11.25V11.25C11 10.5596 10.4404 10 9.75 10H7Z" fill="#E3B593"/>
<path d="M7 18C5.89543 18 5 17.1046 5 16V12C5 10.8954 5.89543 10 7 10H8C10.7614 10 13 12.2386 13 15V15C13 16.6569 11.6569 18 10 18H7Z" fill="#CF9265"/>
<circle cx="4" cy="17" r="1" transform="rotate(-90 4 17)" fill="#E3B593"/>
<circle cx="4" cy="15" r="1" transform="rotate(-90 4 15)" fill="#E3B593"/>
<circle cx="4" cy="13" r="1" transform="rotate(-90 4 13)" fill="#E3B593"/>
<circle cx="4" cy="11" r="1" transform="rotate(-90 4 11)" fill="#E3B593"/>
<path d="M8 26C8.55228 26 9 25.5523 9 25V19C9 18.4477 8.55228 18 8 18H5C2.23858 18 0 20.2386 0 23V23C0 24.6569 1.34315 26 3 26H8Z" fill="#E3B593"/>
<path d="M6 18C6.55228 18 7 18.4477 7 19V19C7 19.5523 6.55228 20 6 20H2.75C2.33579 20 2 19.6642 2 19.25V19.25C2 18.5596 2.55964 18 3.25 18H6Z" fill="#E3B593"/>
<path d="M6 26C7.10457 26 8 25.1046 8 24V20C8 18.8954 7.10457 18 6 18H5C2.23858 18 0 20.2386 0 23V23C0 24.6569 1.34315 26 3 26H6Z" fill="#CF9265"/>
<circle cx="1" cy="1" r="1" transform="matrix(0 -1 -1 0 10 26)" fill="#E3B593"/>
<circle cx="1" cy="1" r="1" transform="matrix(0 -1 -1 0 10 24)" fill="#E3B593"/>
<circle cx="1" cy="1" r="1" transform="matrix(0 -1 -1 0 10 22)" fill="#E3B593"/>
<circle cx="1" cy="1" r="1" transform="matrix(0 -1 -1 0 10 20)" fill="#E3B593"/>
<rect x="1" y="8" width="11" height="2" fill="#A34C50"/>
<rect x="3" width="7" height="8" fill="#BBD0E4"/>
<rect x="6" width="1" height="8" fill="#BCC0C3"/>
<rect x="5" y="26" width="3" height="2" fill="#A34C50"/>
</svg>
