<svg width="20" height="20" viewBox="0 0 20 20" fill="none" xmlns="http://www.w3.org/2000/svg">
<g clip-path="url(#clip0_7_479)">
<path d="M10.1285 17.2449L10.1286 6.86045C10.1286 3.62188 13.4494 1.44574 16.4188 2.7385C19.3808 4.02808 20.0564 7.92781 17.7007 10.1386L10.1285 17.2449Z" fill="#A34C50"/>
<path d="M10.1284 17.2571L2.53991 10.1712C0.162707 7.95136 0.845077 4.02166 3.83145 2.73325C6.80887 1.4487 10.1284 3.63189 10.1284 6.87459V17.2571Z" fill="#A34C50"/>
<path d="M10.65 7.5C10.65 7.22386 10.4262 7 10.15 7C9.87388 7 9.65002 7.22386 9.65002 7.5V13.5C9.65002 13.7761 9.87388 14 10.15 14C10.4262 14 10.65 13.7761 10.65 13.5V7.5Z" fill="#2A6B34"/>
<path d="M7.15002 10C6.87388 10 6.65002 10.2239 6.65002 10.5C6.65002 10.7761 6.87388 11 7.15002 11H13.15C13.4262 11 13.65 10.7761 13.65 10.5C13.65 10.2239 13.4262 10 13.15 10H7.15002Z" fill="#2A6B34"/>
</g>
<defs>
<clipPath id="clip0_7_479">
<rect width="19" height="16" fill="white" transform="translate(0.5 2)"/>
</clipPath>
</defs>
</svg>
