<svg width="43" height="36" viewBox="0 0 43 36" fill="none" xmlns="http://www.w3.org/2000/svg">
<g clip-path="url(#clip0_186_1095)">
<path d="M13.8372 22.6873C16.9349 22.6873 19.446 20.1762 19.446 17.0785C19.446 13.9809 16.9349 11.4697 13.8372 11.4697C10.7396 11.4697 8.22845 13.9809 8.22845 17.0785C8.22845 20.1762 10.7396 22.6873 13.8372 22.6873Z" fill="#213451"/>
<path d="M13.8371 15.2089C14.8697 15.2089 15.7067 14.3719 15.7067 13.3393C15.7067 12.3068 14.8697 11.4697 13.8371 11.4697C12.8046 11.4697 11.9675 12.3068 11.9675 13.3393C11.9675 14.3719 12.8046 15.2089 13.8371 15.2089Z" fill="#D0AEBC"/>
<path d="M39.4367 6.25916L37.5777 10.7287C36.1674 14.1193 33.4679 16.8108 30.0731 18.2112L21.5485 21.7275L26.7289 14.0166C28.2533 11.7475 30.4154 9.98045 32.9423 8.93808L39.4367 6.25916Z" fill="#508B00"/>
<path d="M25.2894 0L26.8773 4.57289C28.082 8.0419 27.8592 11.8474 26.258 15.1522L22.2372 23.4509L20.9701 14.2482C20.5972 11.5401 21.0343 8.78234 22.2262 6.32229L25.2894 0Z" fill="#508B00"/>
<path d="M21.3154 26.4265C24.413 26.4265 26.9241 23.9154 26.9241 20.8177C26.9241 17.7201 24.413 15.209 21.3154 15.209C18.2177 15.209 15.7066 17.7201 15.7066 20.8177C15.7066 23.9154 18.2177 26.4265 21.3154 26.4265Z" fill="#213451"/>
<path d="M21.3156 18.9482C22.3482 18.9482 23.1852 18.1111 23.1852 17.0786C23.1852 16.046 22.3482 15.209 21.3156 15.209C20.2831 15.209 19.446 16.046 19.446 17.0786C19.446 18.1111 20.2831 18.9482 21.3156 18.9482Z" fill="#D0AEBC"/>
<path d="M6.35877 26.4265C9.45641 26.4265 11.9675 23.9154 11.9675 20.8177C11.9675 17.7201 9.45641 15.209 6.35877 15.209C3.26113 15.209 0.75 17.7201 0.75 20.8177C0.75 23.9154 3.26113 26.4265 6.35877 26.4265Z" fill="#213451"/>
<path d="M6.35867 18.9482C7.39122 18.9482 8.22826 18.1111 8.22826 17.0786C8.22826 16.046 7.39122 15.209 6.35867 15.209C5.32612 15.209 4.48907 16.046 4.48907 17.0786C4.48907 18.1111 5.32612 18.9482 6.35867 18.9482Z" fill="#D0AEBC"/>
<path d="M28.794 30.1656C31.8917 30.1656 34.4028 27.6545 34.4028 24.5568C34.4028 21.4592 31.8917 18.948 28.794 18.948C25.6964 18.948 23.1852 21.4592 23.1852 24.5568C23.1852 27.6545 25.6964 30.1656 28.794 30.1656Z" fill="#213451"/>
<path d="M28.7937 22.6872C29.8263 22.6872 30.6633 21.8502 30.6633 20.8176C30.6633 19.7851 29.8263 18.948 28.7937 18.948C27.7612 18.948 26.9241 19.7851 26.9241 20.8176C26.9241 21.8502 27.7612 22.6872 28.7937 22.6872Z" fill="#D0AEBC"/>
<path d="M13.8372 30.1656C16.9349 30.1656 19.446 27.6545 19.446 24.5568C19.446 21.4592 16.9349 18.948 13.8372 18.948C10.7396 18.948 8.22845 21.4592 8.22845 24.5568C8.22845 27.6545 10.7396 30.1656 13.8372 30.1656Z" fill="#213451"/>
<path d="M13.8371 22.6872C14.8697 22.6872 15.7067 21.8502 15.7067 20.8176C15.7067 19.7851 14.8697 18.948 13.8371 18.948C12.8046 18.948 11.9675 19.7851 11.9675 20.8176C11.9675 21.8502 12.8046 22.6872 13.8371 22.6872Z" fill="#D0AEBC"/>
<path d="M21.3154 33.9048C24.413 33.9048 26.9241 31.3936 26.9241 28.296C26.9241 25.1984 24.413 22.6872 21.3154 22.6872C18.2177 22.6872 15.7066 25.1984 15.7066 28.296C15.7066 31.3936 18.2177 33.9048 21.3154 33.9048Z" fill="#213451"/>
<path d="M21.3156 26.4265C22.3482 26.4265 23.1852 25.5894 23.1852 24.5569C23.1852 23.5243 22.3482 22.6873 21.3156 22.6873C20.2831 22.6873 19.446 23.5243 19.446 24.5569C19.446 25.5894 20.2831 26.4265 21.3156 26.4265Z" fill="#D0AEBC"/>
</g>
<defs>
<clipPath id="clip0_186_1095">
<rect width="41.5385" height="36" fill="white" transform="translate(0.75)"/>
</clipPath>
</defs>
</svg>
