<svg width="252" height="54" viewBox="0 0 252 54" fill="none" xmlns="http://www.w3.org/2000/svg">
<path d="M81 19.1912C100.211 8.63809 127.435 14.9344 169 14.2185V54C132.59 53.4968 111.212 41.1986 81 54V19.1912Z" fill="#6C4D35"/>
<path d="M81 19.1912C100.211 8.63809 127.435 14.9344 169 14.2185V54C132.59 53.4968 111.212 41.1986 81 54V19.1912Z" fill="url(#paint0_linear_342_1364)" fill-opacity="0.2"/>
<path d="M81 54C87.561 45.9832 91.8556 42.359 100.301 37L81 36C80.1372 43.3222 80.2584 47.2224 81 54Z" fill="#503927"/>
<path d="M169.301 54C157.196 49.0566 153.44 45.1597 150 37L169.301 34.5C170.559 39.4936 170.611 45.6495 169.301 54Z" fill="#4F3827"/>
<path d="M150 8C171.925 1.54973 202.824 7.72888 250 4.5C251.634 16.4723 251.593 24.036 250 35.5C217.89 33.4027 190 31.5 150 37V8Z" fill="#A3714C"/>
<path d="M150 8C171.925 1.54973 202.824 7.72888 250 4.5C251.634 16.4723 251.593 24.036 250 35.5C217.89 33.4027 190 31.5 150 37V8Z" fill="url(#paint1_linear_342_1364)" fill-opacity="0.5"/>
<path d="M0 6.99999C21.8304 -3.61109 52.7666 2.71976 100 1.99999C102.53 14.7812 102.658 22.3998 100 37C58.6252 36.4941 34.3316 29.1283 0 42C2.30621 28.6254 2.46067 20.9818 0 6.99999Z" fill="#A3714C"/>
<path d="M0 6.99999C21.8304 -3.61109 52.7666 2.71976 100 1.99999C102.53 14.7812 102.658 22.3998 100 37C58.6252 36.4941 34.3316 29.1283 0 42C2.30621 28.6254 2.46067 20.9818 0 6.99999Z" fill="url(#paint2_linear_342_1364)" fill-opacity="0.5"/>
<defs>
<linearGradient id="paint0_linear_342_1364" x1="113.043" y1="13" x2="136.957" y2="54" gradientUnits="userSpaceOnUse">
<stop stop-opacity="0"/>
<stop offset="1"/>
</linearGradient>
<linearGradient id="paint1_linear_342_1364" x1="150" y1="6.60413" x2="203.5" y2="21" gradientUnits="userSpaceOnUse">
<stop stop-opacity="0"/>
<stop offset="1"/>
</linearGradient>
<linearGradient id="paint2_linear_342_1364" x1="33.6" y1="0.774781" x2="68.3458" y2="42" gradientUnits="userSpaceOnUse">
<stop stop-opacity="0"/>
<stop offset="1"/>
</linearGradient>
</defs>
</svg>
