<svg width="11" height="16" viewBox="0 0 11 16" fill="none" xmlns="http://www.w3.org/2000/svg">
<path d="M2.66675 9.33333L3.33341 12L4.00008 8L4.66674 10.6667L5.33341 9.33333V14.6667H2.66675V9.33333Z" fill="#D9D9D9"/>
<circle cx="5.33333" cy="14.6666" r="1.33333" fill="#D9D9D9"/>
<circle cx="2.66658" cy="14.6666" r="1.33333" fill="#D9D9D9"/>
<path d="M5.10443 7.54242L6.51864 5.1854L3.21881 7.54242L4.63302 5.1854L3.21881 5.65681L6.99004 1.88558L8.87566 3.77119L5.10443 7.54242Z" fill="#D9D9D9"/>
<circle cx="6.98999" cy="1.88563" r="1.33333" transform="rotate(-135 6.98999 1.88563)" fill="#D9D9D9"/>
<circle cx="8.87561" cy="3.77118" r="1.33333" transform="rotate(-135 8.87561 3.77118)" fill="#D9D9D9"/>
<path d="M1.33333 5.99998L2.48803 7.33331L0 5.33331L1.33333 5.99998Z" fill="#D9D9D9"/>
<path d="M1.264 7.99959L3.00378 7.7093L0 8.78986L1.264 7.99959Z" fill="#D9D9D9"/>
</svg>
