<svg width="25" height="36" viewBox="0 0 25 36" fill="none" xmlns="http://www.w3.org/2000/svg">
<path d="M6.00018 21L7.50017 27L9.00018 18L10.5002 24.0001L12.0002 21V33.0001H6.00018V21Z" fill="#D9D9D9"/>
<path d="M12 35.9998C13.6568 35.9998 15 34.6567 15 32.9998C15 31.343 13.6568 29.9999 12 29.9999C10.3431 29.9999 9 31.343 9 32.9998C9 34.6567 10.3431 35.9998 12 35.9998Z" fill="#D9D9D9"/>
<path d="M5.99981 35.9998C7.65666 35.9998 8.9998 34.6567 8.9998 32.9998C8.9998 31.343 7.65666 29.9999 5.99981 29.9999C4.34296 29.9999 2.99982 31.343 2.99982 32.9998C2.99982 34.6567 4.34296 35.9998 5.99981 35.9998Z" fill="#D9D9D9"/>
<path d="M11.485 16.9704L14.6669 11.6671L7.24231 16.9704L10.4243 11.6671L7.24231 12.7278L15.7276 4.24255L19.9702 8.48518L11.485 16.9704Z" fill="#D9D9D9"/>
<path d="M17.8488 2.12135C16.6772 0.949783 14.7777 0.949783 13.6062 2.12135C12.4346 3.29292 12.4346 5.19241 13.6062 6.36398C14.7777 7.53555 16.6772 7.53555 17.8488 6.36398C19.0204 5.19241 19.0204 3.29292 17.8488 2.12135Z" fill="#D9D9D9"/>
<path d="M22.0914 6.36384C20.9198 5.19227 19.0203 5.19227 17.8488 6.36384C16.6772 7.53541 16.6772 9.4349 17.8488 10.6065C19.0203 11.778 20.9198 11.778 22.0914 10.6065C23.263 9.4349 23.263 7.53541 22.0914 6.36384Z" fill="#D9D9D9"/>
<path d="M2.99999 13.5L5.59807 16.4999L0 11.9999L2.99999 13.5Z" fill="#D9D9D9"/>
<path d="M2.844 17.9991L6.7585 17.3459L0 19.7772L2.844 17.9991Z" fill="#D9D9D9"/>
</svg>
