<svg width="21" height="24" viewBox="0 0 21 24" fill="none" xmlns="http://www.w3.org/2000/svg">
<path d="M10.5506 2.28882e-05L20.5537 5.77531V17.3259L10.5506 23.1011L0.547485 17.3259V5.77531L10.5506 2.28882e-05Z" fill="#31404B"/>
<path d="M0.549936 5.78004L10.5499 7.62939e-06L10.55 4.00002L0.549866 9.80002L0.549936 5.78004Z" fill="black" fill-opacity="0.5"/>
<path d="M20.55 5.78003L10.5499 0L10.55 4.00001L20.55 9.80002V5.78003Z" fill="black" fill-opacity="0.5"/>
<path d="M14.5 11.168C14.5 11.2747 14.4385 11.3814 14.3154 11.4881C14.1923 11.5592 14.0692 11.6126 13.9462 11.6481C13.741 11.7193 13.5154 11.7548 13.2692 11.7548C13.0641 11.7548 12.859 11.7726 12.6538 11.8082C12.2026 11.8438 11.8949 11.9149 11.7308 12.0216C11.6077 12.1283 11.5667 12.395 11.6077 12.8218C11.6077 13.4976 11.6692 14.1556 11.7923 14.7958C11.8333 15.5427 11.6487 15.9339 11.2385 15.9695C10.9923 16.0406 10.7462 15.9873 10.5 15.8095C10.2538 15.6316 10.0897 15.3827 10.0077 15.0626C9.92564 14.6358 9.84359 14.209 9.76154 13.7822C9.72051 13.3198 9.65897 12.8752 9.57692 12.4484C9.49487 12.0572 9.41282 11.826 9.33077 11.7548C9.24872 11.6837 8.98205 11.6126 8.53077 11.5414C8.24359 11.5059 7.95641 11.4881 7.66923 11.4881C7.42308 11.4525 7.17692 11.3992 6.93077 11.328C6.84872 11.2925 6.74615 11.2213 6.62308 11.1146C6.54103 10.9724 6.5 10.8657 6.5 10.7945C6.5 10.7234 6.56154 10.6345 6.68462 10.5278C6.80769 10.4211 6.91026 10.35 6.99231 10.3144C7.19744 10.2433 7.42308 10.2077 7.66923 10.2077C7.91538 10.2077 8.16154 10.2077 8.40769 10.2077C8.94103 10.2077 9.20769 9.9765 9.20769 9.51413C9.24872 9.30073 9.26923 9.08733 9.26923 8.87393C9.26923 8.62496 9.26923 8.37599 9.26923 8.12703C9.35128 7.77136 9.43333 7.50461 9.51538 7.32677C9.67949 7.0778 9.90513 6.9711 10.1923 7.00667C10.4795 7.00667 10.6846 7.13115 10.8077 7.38012C10.8897 7.59352 10.9513 7.82471 10.9923 8.07368C11.0333 8.28708 11.0949 8.50048 11.1769 8.71388C11.2179 8.89171 11.2385 9.06955 11.2385 9.24738C11.2385 9.38965 11.259 9.5497 11.3 9.72753C11.341 10.1543 11.6487 10.3677 12.2231 10.3677C12.4282 10.3322 12.6538 10.3144 12.9 10.3144C13.1462 10.3144 13.3923 10.3144 13.6385 10.3144C14.1718 10.3855 14.459 10.6701 14.5 11.168Z" fill="#F8F8F8"/>
</svg>
