<svg width="21" height="24" viewBox="0 0 21 24" fill="none" xmlns="http://www.w3.org/2000/svg">
<path d="M10.5506 1.52588e-05L20.5537 5.7753V17.3259L10.5506 23.1011L0.547485 17.3259V5.7753L10.5506 1.52588e-05Z" fill="#31404B"/>
<path d="M0.549936 5.78005L10.5499 1.52588e-05L10.55 4.00003L0.549866 9.80003L0.549936 5.78005Z" fill="black" fill-opacity="0.5"/>
<path d="M20.55 5.78003L10.5499 0L10.55 4.00001L20.55 9.80002V5.78003Z" fill="black" fill-opacity="0.5"/>
<path fill-rule="evenodd" clip-rule="evenodd" d="M5 10.1932L7.22198 11.5L5 12.8068L6.63773 15.6932L8.861 14.3886L8.86225 17H12.1377L12.139 14.3886L14.3623 15.6932L16 12.8068L13.778 11.5L16 10.1932L14.3623 7.30684L12.139 8.61142L12.1377 6H8.86225L8.861 8.61142L6.63773 7.30684L5 10.1932ZM11.379 10.125H9.72903L8.90403 11.554L9.72903 12.9829H11.379L12.204 11.554L11.379 10.125Z" fill="#BCC0C3"/>
</svg>
