<svg width="21" height="24" viewBox="0 0 21 24" fill="none" xmlns="http://www.w3.org/2000/svg">
<g clip-path="url(#clip0_186_1253)">
<path d="M10.0043 0.887508L20.0074 6.6628V18.2134L10.0043 23.9887L0.0012207 18.2134V6.6628L10.0043 0.887508Z" fill="white"/>
<path d="M10.0391 6.20081L5.0376 14.8637H15.0406L10.0391 6.20081Z" fill="#83BCE4"/>
<path d="M10.0043 23.9887L5.0376 14.8637H15.0406L10.0043 23.9887Z" fill="#A0D4F8"/>
<path d="M10.0044 23.9887L5.03759 14.8637L0.00158691 18.2134L10.0044 23.9887Z" fill="#B9DEF8"/>
<path d="M10.0043 23.9887L20.0071 18.2134L15.0406 14.8637L10.0043 23.9887Z" fill="#70A3C7"/>
<path d="M19.9956 6.66281L10.039 6.2008L15.0404 14.8637L19.9956 6.66281Z" fill="#7AB1D8"/>
<path d="M19.9956 6.6628L20.0071 18.2134L15.0404 14.8637L19.9956 6.6628Z" fill="#6593B4"/>
<path d="M0.00152588 6.66277L5.03762 14.8637L10.039 6.20074L0.00152588 6.66277Z" fill="#B9DEF8"/>
<path d="M0.00158691 6.66278L5.0376 14.8637L0.00158691 18.2134V6.66278Z" fill="#C8E8FF"/>
<path d="M0.00158691 6.6628L10.039 6.20078L10.0044 0.887508L0.00158691 6.6628Z" fill="#C7E8FF"/>
<path d="M20.0072 6.6628L10.039 6.20078L10.0044 0.887508L20.0072 6.6628Z" fill="#85BBE2"/>
</g>
<defs>
<clipPath id="clip0_186_1253">
<rect width="21" height="24" fill="white"/>
</clipPath>
</defs>
</svg>
