<svg width="21" height="24" viewBox="0 0 21 24" fill="none" xmlns="http://www.w3.org/2000/svg">
<path d="M10.5506 2.28882e-05L20.5537 5.77531V17.3259L10.5506 23.1011L0.547485 17.3259V5.77531L10.5506 2.28882e-05Z" fill="#31404B"/>
<path d="M0.549936 5.78004L10.5499 7.62939e-06L10.55 4.00002L0.549866 9.80002L0.549936 5.78004Z" fill="black" fill-opacity="0.5"/>
<path d="M20.55 5.78003L10.5499 0L10.55 4.00001L20.55 9.80002V5.78003Z" fill="black" fill-opacity="0.5"/>
<path d="M8.38222 12.484C8.15001 12.4376 7.94102 12.4143 7.75524 12.4143C7.61592 12.4143 7.45337 12.3911 7.26759 12.3447C7.03538 12.2518 6.80316 12.1357 6.57095 11.9964C6.38518 11.857 6.31551 11.6248 6.36196 11.2997C6.4084 11.0211 6.52451 10.8353 6.71028 10.7424C6.94249 10.6495 7.17471 10.5798 7.40692 10.5334C7.77846 10.5334 8.15001 10.5566 8.52155 10.6031C8.89309 10.6031 9.26465 10.5798 9.63618 10.5334C10.2864 10.5334 10.8669 10.5334 11.3778 10.5334C11.8887 10.5334 12.4692 10.5102 13.1194 10.4637C14.1412 10.3709 14.652 10.6495 14.652 11.2997C14.652 12.0428 14.2108 12.4608 13.3284 12.5537H10.5418H9.70585C9.47364 12.5537 9.24141 12.5537 9.0092 12.5537C8.77699 12.5072 8.568 12.484 8.38222 12.484Z" fill="#D9D9D9"/>
</svg>
