<svg width="96" height="100" viewBox="0 0 96 100" fill="none" xmlns="http://www.w3.org/2000/svg">
<path d="M48 22L76.5316 42.7295L65.6335 76.2705H30.3664L19.4683 42.7295L48 22Z" fill="#5DA469"/>
<path d="M77.39 9.55L95.55 34.55L76.53 42.73L48 22V0L77.39 9.55Z" fill="#469552"/>
<path d="M95.5499 65.45V34.55L76.5299 42.73L65.6299 76.27L77.3899 90.45L95.5499 65.45Z" fill="#265E2F"/>
<path d="M48.0001 100L18.6101 90.45L30.37 76.27L65.63 76.27L77.39 90.45L48.0001 100Z" fill="#33793E"/>
<path d="M18.6101 9.55L0.449951 34.55L19.47 42.73L48 22V0L18.6101 9.55Z" fill="#9FD4A8"/>
<path d="M0.45 65.45L0.449951 34.55L19.47 42.73L30.37 76.27L18.61 90.45L0.45 65.45Z" fill="#8BCB95"/>
</svg>
