<svg width="260" height="225" viewBox="0 0 260 225" fill="none" xmlns="http://www.w3.org/2000/svg">
<path d="M126.738 78.9989L92.0974 138.999C90.5578 141.666 92.4823 144.999 95.5615 144.999H164.844C167.923 144.999 169.847 141.666 168.308 138.999L133.667 78.9989C132.127 76.3322 128.278 76.3322 126.738 78.9989Z" stroke="black" stroke-width="2"/>
<path d="M91.8022 152.911L126.418 216.509C127.929 219.283 131.907 219.295 133.434 216.529L168.535 152.932C170.007 150.266 168.078 146.999 165.033 146.999H95.3155C92.2808 146.999 90.3514 150.246 91.8022 152.911Z" stroke="black" stroke-width="2"/>
<path d="M120.53 209.874L88.6347 151.275C87.5119 149.213 84.8618 148.556 82.9062 149.857L50.5657 171.368C48.0947 173.012 48.2109 176.679 50.7809 178.163L115.017 215.25C118.515 217.27 122.461 213.422 120.53 209.874Z" stroke="black" stroke-width="2"/>
<path d="M144.96 215.15L209.071 178.134C211.632 176.656 211.759 173.007 209.308 171.354L177.476 149.885C175.529 148.571 172.873 149.211 171.738 151.268L139.458 209.753C137.5 213.3 141.451 217.175 144.96 215.15Z" stroke="black" stroke-width="2"/>
<path d="M207.962 75.6083L139.288 72.4216C136.13 72.275 134.058 75.6787 135.639 78.4173L170.135 138.168C171.657 140.804 175.449 140.842 177.023 138.237L211.2 81.6726C212.768 79.0772 210.991 75.7488 207.962 75.6083Z" stroke="black" stroke-width="2"/>
<path d="M215.492 165.586L215.419 92.9085C215.415 88.8602 210.089 87.379 207.995 90.8439L176.817 142.445C175.715 144.269 176.237 146.638 178.004 147.83L209.255 168.906C211.913 170.699 215.495 168.792 215.492 165.586Z" stroke="black" stroke-width="2"/>
<path d="M48.588 81.6972L83.3601 138.321C84.9463 140.904 88.7173 140.853 90.2328 138.228L124.766 78.4138C126.346 75.6759 124.276 72.2727 121.118 72.4181L51.8127 75.6082C48.7702 75.7483 46.9942 79.1018 48.588 81.6972Z" stroke="black" stroke-width="2"/>
<path d="M83.5258 142.413L51.7099 90.6028C49.5982 87.1641 44.3013 88.6607 44.3013 92.696L44.3013 165.668C44.3013 168.861 47.8581 170.767 50.5166 168.999L82.3324 147.837C84.1249 146.645 84.6523 144.248 83.5258 142.413Z" stroke="black" stroke-width="2"/>
<path d="M63.7714 73.0556L125.354 70.2209C127.499 70.1222 129.184 68.3468 129.17 66.1991L128.957 33.6007C128.937 30.5332 125.614 28.6289 122.957 30.1627L61.5875 65.5957C57.9583 67.6911 59.5852 73.2483 63.7714 73.0556Z" stroke="black" stroke-width="2"/>
<path d="M134.985 70.2195L196.017 73.0483C200.204 73.2424 201.833 67.6843 198.203 65.5885L136.958 30.2279C134.281 28.6824 130.938 30.6273 130.958 33.718L131.17 66.2498C131.184 68.3768 132.86 70.121 134.985 70.2195Z" stroke="black" stroke-width="2"/>
<path d="M131.901 27.3083L213.504 74.4216C214.741 75.1361 215.504 76.4566 215.504 77.8857V172.112C215.504 173.541 214.741 174.862 213.504 175.576L131.901 222.689C130.664 223.404 129.139 223.404 127.901 222.689L46.2987 175.576C45.0611 174.862 44.2987 173.541 44.2987 172.112V77.8857C44.2987 76.4566 45.0611 75.1361 46.2987 74.4216L127.901 27.3083C129.139 26.5938 130.664 26.5938 131.901 27.3083Z" stroke="black" stroke-width="2"/>
<path d="M135.383 131.758C135.383 132.227 135.281 132.555 135.078 132.742C134.891 132.914 134.562 133 134.094 133H129.266C128.797 133 128.461 132.914 128.258 132.742C128.07 132.555 127.977 132.227 127.977 131.758V107.219L124.719 108.859C124.406 109.031 124.125 109.102 123.875 109.07C123.391 108.992 122.859 108.867 122.281 108.695C121.719 108.523 121.094 108.289 120.406 107.992C120.172 107.852 120.031 107.727 119.984 107.617C119.922 107.508 119.922 107.328 119.984 107.078C120.344 105.703 120.773 104.578 121.273 103.703C121.43 103.484 121.656 103.305 121.953 103.164L130.906 98.6406H135.383V131.758Z" fill="black"/>
</svg>
