<svg width="84" height="97" viewBox="0 0 84 97" fill="none" xmlns="http://www.w3.org/2000/svg">
<g clip-path="url(#clip0_186_1311)">
<path d="M41.6846 0.697958L83.3642 24.7617V72.8892L41.6846 96.9529L0.00509644 72.8892V24.7617L41.6846 0.697958Z" fill="white"/>
<path d="M41.8296 22.8367L20.99 58.9321H62.6692L41.8296 22.8367Z" fill="#E49383"/>
<path d="M41.6846 96.9529L20.99 58.9321H62.6692L41.6846 96.9529Z" fill="#F8B3A0"/>
<path d="M41.685 96.9529L20.99 58.9321L0.00665283 72.8892L41.685 96.9529Z" fill="#F8C4B9"/>
<path d="M41.6846 96.9529L83.3629 72.8892L62.6692 58.9321L41.6846 96.9529Z" fill="#C78670"/>
<path d="M83.315 24.7617L41.8292 22.8367L62.6683 58.9321L83.315 24.7617Z" fill="#D88A7A"/>
<path d="M83.315 24.7617L83.3629 72.8892L62.6683 58.9321L83.315 24.7617Z" fill="#B46C65"/>
<path d="M0.00628662 24.7615L20.99 58.9321L41.8292 22.8364L0.00628662 24.7615Z" fill="#F8C4B9"/>
<path d="M0.00662231 24.7616L20.99 58.9321L0.00662231 72.8892V24.7616Z" fill="#FFD3C8"/>
<path d="M0.0065918 24.7617L41.8292 22.8366L41.685 0.697958L0.0065918 24.7617Z" fill="#FFD0C7"/>
<path d="M83.3633 24.7617L41.8292 22.8366L41.685 0.697958L83.3633 24.7617Z" fill="#E29185"/>
</g>
<defs>
<clipPath id="clip0_186_1311">
<rect width="84" height="97" fill="white"/>
</clipPath>
</defs>
</svg>
