<svg width="25" height="25" viewBox="0 0 25 25" fill="none" xmlns="http://www.w3.org/2000/svg">
<path d="M12 1.99988L16.7689 13.0131C18.1985 16.3145 15.7782 19.9999 12.1806 19.9999H11.8195C8.22186 19.9999 5.80163 16.3145 7.23118 13.0131L12 1.99988Z" fill="#E94445"/>
<rect x="14.8491" y="5.65674" width="5" height="15" transform="rotate(45 14.8491 5.65674)" fill="#BCC0C3"/>
<mask id="path-3-inside-1_7_428" fill="white">
<path d="M16.4497 6.84302L17.1568 7.55012L6.55021 18.1567L5.84311 17.4496L16.4497 6.84302Z"/>
</mask>
<path d="M16.4497 6.84302L17.1568 7.55012L6.55021 18.1567L5.84311 17.4496L16.4497 6.84302Z" fill="#BCC0C3"/>
<path d="M16.4497 6.84302L5.84311 17.4496L7.25732 18.8638L17.8639 8.25723L16.4497 6.84302ZM6.55021 18.1567L17.1568 7.55012L15.7426 6.13591L5.136 16.7425L6.55021 18.1567Z" fill="#A9ACAE" mask="url(#path-3-inside-1_7_428)"/>
<path d="M3.18195 20.8594L7.77815 19.7988L4.24261 16.2632L3.18195 20.8594Z" fill="#BCC0C3"/>
<path d="M13.435 4.24251C13.8255 3.85198 14.4587 3.85198 14.8492 4.24251L19.7989 9.19225C20.1895 9.58278 20.1895 10.2159 19.7989 10.6065V10.6065L13.435 4.24251V4.24251Z" fill="#CF9265"/>
<path d="M19.0918 2.82832C19.4824 2.4378 20.1155 2.4378 20.5061 2.82832L21.2132 3.53543C21.6037 3.92595 21.6037 4.55912 21.2132 4.94964L18.3847 7.77807L16.2634 5.65675L19.0918 2.82832Z" fill="#A3714C"/>
</svg>
