<svg width="21" height="21" viewBox="0 0 21 21" fill="none" xmlns="http://www.w3.org/2000/svg">
<path d="M10 1L14.7689 12.0132C16.1985 15.3146 13.7782 19 10.1806 19H9.81949C6.22186 19 3.80163 15.3146 5.23118 12.0132L10 1Z" fill="#A34C50"/>
<rect x="12.1621" y="4.80835" width="5" height="12" transform="rotate(45 12.1621 4.80835)" fill="#BCC0C3"/>
<mask id="path-3-inside-1_7_428" fill="white">
<path d="M13.7213 6.03607L14.4284 6.74318L5.94314 15.2285L5.23603 14.5214L13.7213 6.03607Z"/>
</mask>
<path d="M13.7213 6.03607L14.4284 6.74318L5.94314 15.2285L5.23603 14.5214L13.7213 6.03607Z" fill="#BCC0C3"/>
<path d="M13.7213 6.03607L5.23603 14.5214L6.65025 15.9356L15.1355 7.45029L13.7213 6.03607ZM5.94314 15.2285L14.4284 6.74318L13.0142 5.32897L4.52893 13.8142L5.94314 15.2285Z" fill="#A9ACAE" mask="url(#path-3-inside-1_7_428)"/>
<path d="M3.18195 17.3242L7.21246 16.8292L3.67693 13.2937L3.18195 17.3242Z" fill="#BCC0C3"/>
<path d="M10.748 3.39412C11.0605 3.0817 11.567 3.0817 11.8794 3.39412L17.112 8.62671C17.4244 8.93913 17.4244 9.44566 17.112 9.75808V9.75808L10.748 3.39412V3.39412Z" fill="#CF9265"/>
<path d="M15.5563 2.82844C15.9468 2.43792 16.58 2.43792 16.9705 2.82844L17.6776 3.53555C18.0682 3.92608 18.0682 4.55924 17.6776 4.94976L15.5563 7.07109L13.435 4.94976L15.5563 2.82844Z" fill="#A3714C"/>
</svg>
