<svg width="30" height="36" viewBox="0 0 30 36" fill="none" xmlns="http://www.w3.org/2000/svg">
<g clip-path="url(#clip0_248_183)">
<path d="M13.5143 16.8C18.1535 16.8 21.9143 13.0392 21.9143 8.4C21.9143 3.76081 18.1535 0 13.5143 0C8.87507 0 5.11426 3.76081 5.11426 8.4C5.11426 13.0392 8.87507 16.8 13.5143 16.8Z" fill="#D9D9D9"/>
<path d="M13.5143 21.6C16.828 21.6 19.5143 19.451 19.5143 16.8C19.5143 14.149 16.828 12 13.5143 12C10.2006 12 7.51428 14.149 7.51428 16.8C7.51428 19.451 10.2006 21.6 13.5143 21.6Z" fill="#D9D9D9"/>
<path d="M12.3143 16.8H14.7143" stroke="black" stroke-linecap="round"/>
<path d="M13.5143 14.4C14.177 14.4 14.7143 13.8627 14.7143 13.2C14.7143 12.5373 14.177 12 13.5143 12C12.8515 12 12.3143 12.5373 12.3143 13.2C12.3143 13.8627 12.8515 14.4 13.5143 14.4Z" fill="black"/>
<path d="M9.91428 9.6C11.2398 9.6 12.3143 8.52549 12.3143 7.2C12.3143 5.87452 11.2398 4.8 9.91428 4.8C8.5888 4.8 7.51428 5.87452 7.51428 7.2C7.51428 8.52549 8.5888 9.6 9.91428 9.6Z" fill="black"/>
<path d="M17.1143 9.6C18.4398 9.6 19.5143 8.52549 19.5143 7.2C19.5143 5.87452 18.4398 4.8 17.1143 4.8C15.7888 4.8 14.7143 5.87452 14.7143 7.2C14.7143 8.52549 15.7888 9.6 17.1143 9.6Z" fill="black"/>
<path d="M25.3577 26.7744L24.1294 22.1342L3.2486 27.6617L4.47692 32.3019L25.3577 26.7744Z" fill="#D9D9D9"/>
<path d="M21.8094 22.7484C22.1486 24.0298 23.4623 24.7935 24.7436 24.4543C26.025 24.1151 26.7887 22.8014 26.4495 21.5201C26.1104 20.2387 24.7966 19.475 23.5153 19.8142C22.234 20.1533 21.4702 21.4671 21.8094 22.7484Z" fill="#D9D9D9"/>
<path d="M0.928573 28.2758C1.26776 29.5572 2.58147 30.321 3.86282 29.9818C5.14417 29.6426 5.90794 28.3289 5.56875 27.0475C5.22956 25.7662 3.91585 25.0024 2.6345 25.3416C1.35315 25.6808 0.589382 26.9945 0.928573 28.2758Z" fill="#D9D9D9"/>
<path d="M2.15703 32.916C2.49622 34.1974 3.80993 34.9611 5.09127 34.6219C6.37262 34.2827 7.13639 32.969 6.7972 31.6877C6.45801 30.4063 5.14431 29.6426 3.86296 29.9818C2.58161 30.3209 1.81784 31.6347 2.15703 32.916Z" fill="#D9D9D9"/>
<path d="M23.0377 27.3886C23.3769 28.6699 24.6906 29.4337 25.972 29.0945C27.2533 28.7553 28.0171 27.4416 27.6779 26.1602C27.3387 24.8789 26.025 24.1151 24.7436 24.4543C23.4623 24.7935 22.6985 26.1072 23.0377 27.3886Z" fill="#D9D9D9"/>
</g>
<defs>
<clipPath id="clip0_248_183">
<rect width="28.8" height="36" fill="white" transform="translate(0.31427)"/>
</clipPath>
</defs>
</svg>
