<svg width="36" height="36" viewBox="0 0 36 36" fill="none" xmlns="http://www.w3.org/2000/svg">
<path d="M20.7386 29.2278C23.1793 43.0298 2.07044 24.3565 5.31805 11.3664" stroke="#2F2F2F" stroke-width="0.5"/>
<path d="M19.7227 28.7585C19.7398 29.279 19.4681 29.6289 20.029 29.7707L20.4353 29.8734C20.9962 30.0152 21.437 29.7082 21.4199 29.1876L19.9741 5.89828L18.2769 5.46916L19.7227 28.7585Z" fill="#A3714C"/>
<path d="M18.1916 6.88516C24.6462 5.38425 28.3796 5.33237 35.2095 6.31509C28.6366 3.66929 24.8439 2.79486 17.7947 2.8452L18.1916 6.88516Z" fill="#BCC0C3"/>
<rect x="19.1199" y="27.604" width="2.43565" height="3.24753" rx="1" fill="#BCC0C3"/>
<circle cx="5.31798" cy="11.3664" r="1.62377" fill="#BCC0C3"/>
<path d="M5.31797 8.11884L6.04708 10.3628H8.40655L6.4977 11.7497L7.22682 13.9937L5.31797 12.6068L3.40911 13.9937L4.13823 11.7497L2.22938 10.3628H4.58885L5.31797 8.11884Z" fill="#BCC0C3" fill-opacity="0.7"/>
</svg>
