<svg width="34" height="37" viewBox="0 0 34 37" fill="none" xmlns="http://www.w3.org/2000/svg">
<path d="M16.8 35.4974C21.4392 35.4974 25.2 31.7366 25.2 27.0974C25.2 22.4582 21.4392 18.6974 16.8 18.6974C12.1608 18.6974 8.40002 22.4582 8.40002 27.0974C8.40002 31.7366 12.1608 35.4974 16.8 35.4974Z" fill="#265E2F" fill-opacity="0.5" stroke="#265E2F"/>
<path d="M6.00001 18.6974C8.65098 18.6974 10.8 16.5484 10.8 13.8974C10.8 11.2464 8.65098 9.09741 6.00001 9.09741C3.34905 9.09741 1.20001 11.2464 1.20001 13.8974C1.20001 16.5484 3.34905 18.6974 6.00001 18.6974Z" fill="#265E2F" fill-opacity="0.5" stroke="#265E2F"/>
<path d="M10.8 6.69742C12.1255 6.69742 13.2 5.6229 13.2 4.29742C13.2 2.97193 12.1255 1.89742 10.8 1.89742C9.47454 1.89742 8.40002 2.97193 8.40002 4.29742C8.40002 5.6229 9.47454 6.69742 10.8 6.69742Z" fill="#265E2F" fill-opacity="0.3" stroke="#265E2F"/>
<path d="M22.8 9.09742C24.1255 9.09742 25.2 8.02291 25.2 6.69742C25.2 5.37194 24.1255 4.29742 22.8 4.29742C21.4745 4.29742 20.4 5.37194 20.4 6.69742C20.4 8.02291 21.4745 9.09742 22.8 9.09742Z" fill="#265E2F" fill-opacity="0.3" stroke="#265E2F"/>
<path d="M28.8 18.6974C30.7882 18.6974 32.4 17.0856 32.4 15.0974C32.4 13.1092 30.7882 11.4974 28.8 11.4974C26.8118 11.4974 25.2 13.1092 25.2 15.0974C25.2 17.0856 26.8118 18.6974 28.8 18.6974Z" fill="#265E2F" fill-opacity="0.4" stroke="#265E2F"/>
</svg>
