<svg width="25" height="17" viewBox="0 0 25 17" fill="none" xmlns="http://www.w3.org/2000/svg">
<g clip-path="url(#clip0_202_1651)">
<path d="M24.2648 11.397C24.2648 11.7768 24.0662 12.2223 23.5247 12.7119C22.9831 13.2015 22.1581 13.6761 21.0763 14.0897C18.9176 14.9152 15.8856 15.4411 12.5001 15.4411C9.11447 15.4411 6.08256 14.9152 3.92382 14.0897C2.84195 13.6761 2.01704 13.2015 1.47545 12.7119C0.933852 12.2223 0.735352 11.7768 0.735352 11.397C0.735352 11.0172 0.933852 10.5717 1.47545 10.0821C2.01704 9.59254 2.84195 9.11791 3.92382 8.7043C6.08256 7.87886 9.11447 7.35291 12.5001 7.35291C15.8856 7.35291 18.9176 7.87886 21.0763 8.7043C22.1581 9.11791 22.9831 9.59254 23.5247 10.0821C24.0662 10.5717 24.2648 11.0172 24.2648 11.397Z" stroke="#D9D9D9" stroke-width="2"/>
<path d="M1.80847 2.06104L4.01435 7.20809" stroke="#D9D9D9"/>
<path d="M8.45264 0.686523L9.19587 6.23681" stroke="#D9D9D9"/>
<path d="M17.5255 0.860962L16.2878 6.32231" stroke="#D9D9D9"/>
<path d="M23.8722 2.37769L22.1842 7.717" stroke="#D9D9D9"/>
<path d="M12.5 13.603C14.3274 13.603 15.8088 12.1216 15.8088 10.2942C15.8088 8.46676 14.3274 6.98535 12.5 6.98535C10.6726 6.98535 9.19116 8.46676 9.19116 10.2942C9.19116 12.1216 10.6726 13.603 12.5 13.603Z" stroke="#D9D9D9"/>
</g>
<defs>
<clipPath id="clip0_202_1651">
<rect width="25" height="16.1765" fill="white"/>
</clipPath>
</defs>
</svg>
