<svg width="25" height="16" viewBox="0 0 25 16" fill="none" xmlns="http://www.w3.org/2000/svg">
<g clip-path="url(#clip0_186_972)">
<path d="M23.6941 11.0121C23.6941 11.3767 23.5035 11.8043 22.9837 12.2744C22.4637 12.7444 21.6718 13.2 20.6332 13.5971C18.5608 14.3895 15.6502 14.8944 12.4 14.8944C9.14985 14.8944 6.23921 14.3895 4.16683 13.5971C3.12823 13.2 2.33631 12.7444 1.81639 12.2744C1.29646 11.8043 1.1059 11.3767 1.1059 11.0121C1.1059 10.6475 1.29646 10.2198 1.81639 9.74974C2.33631 9.27976 3.12823 8.82411 4.16683 8.42706C6.23921 7.63463 9.14985 7.12971 12.4 7.12971C15.6502 7.12971 18.5608 7.63463 20.6332 8.42706C21.6718 8.82411 22.4637 9.27976 22.9837 9.74974C23.5035 10.2198 23.6941 10.6475 23.6941 11.0121Z" stroke="#1E1E1E" stroke-width="2"/>
<path d="M2.13617 2.04951L4.25382 6.99069" stroke="#1E1E1E"/>
<path d="M8.51459 0.729935L9.22809 6.05821" stroke="#1E1E1E"/>
<path d="M17.2245 0.89743L16.0364 6.14033" stroke="#1E1E1E"/>
<path d="M23.3173 2.35353L21.6968 7.47927" stroke="#1E1E1E"/>
<path d="M12.4 13.1297C14.1544 13.1297 15.5765 11.7076 15.5765 9.95325C15.5765 8.19893 14.1544 6.77678 12.4 6.77678C10.6457 6.77678 9.22357 8.19893 9.22357 9.95325C9.22357 11.7076 10.6457 13.1297 12.4 13.1297Z" stroke="#1E1E1E"/>
</g>
<defs>
<clipPath id="clip0_186_972">
<rect width="24" height="15.5294" fill="white" transform="translate(0.400024 0.0708923)"/>
</clipPath>
</defs>
</svg>
