<svg width="24" height="36" viewBox="0 0 24 36" fill="none" xmlns="http://www.w3.org/2000/svg">
<g clip-path="url(#clip0_186_1141)">
<path d="M11.0389 21.857L10.6324 22.1191C6.56894 24.7388 8.42428 31.0407 13.259 31.0407C15.6286 31.0407 17.651 29.3277 18.0405 26.9902L19.4197 18.715C19.7594 16.6764 19.6028 14.5859 18.9629 12.6208L17.3654 7.71429V16.5561C17.3654 17.4528 16.8982 18.2848 16.1325 18.7516L11.0389 21.857Z" fill="#E77C40" fill-opacity="0.5"/>
<path d="M12.6517 20.5714C13.024 20.8196 14.6312 20.1711 14.8314 20.5714L19.8373 23.1668C21.7116 26.9154 18.5557 31.2117 14.4181 30.5439L11.714 30.1076C9.6965 29.7818 8.06323 28.2926 7.55324 26.3137L4.56853 14.7319C4.03401 12.6578 4.02614 10.483 4.54562 8.40506L6.32546 1.2857L6.22309 11.5714C6.37823 12.192 7.87055 17.6452 8.40278 18L12.6517 20.5714Z" fill="#B85454" fill-opacity="0.5"/>
<path d="M16.1169 21.8572C16.3529 22.0966 15.0524 22.9366 15.1793 23.3226L18.352 25.8258C19.5399 29.4413 17.5397 33.585 14.9174 32.9409L13.2035 32.5201C11.9249 32.2058 10.8898 30.7696 10.5665 28.861L8.67487 17.6906C8.3361 15.6901 8.33111 13.5926 8.66035 11.5884L9.78839 4.72193L10.5665 13.7219C10.6649 14.3205 14.4939 20.2292 14.8312 20.5714L16.1169 21.8572Z" fill="#B85454" fill-opacity="0.7"/>
<path d="M8.41722 19.7066C8.18123 19.946 9.48167 20.7861 9.35483 21.1721L6.18212 23.6753C4.99421 27.2908 6.99438 31.4345 9.61674 30.7904L11.3306 30.3696C12.6092 30.0553 13.6444 28.6191 13.9676 26.7105L15.8592 15.5401C16.198 13.5396 16.203 11.4421 15.8738 9.43792L14.7457 2.57143L13.9676 11.5714C13.8693 12.1699 10.0403 18.0787 9.70293 18.4209L8.41722 19.7066Z" fill="#B85454" fill-opacity="0.7"/>
<path d="M13.8115 23.4139L12.6684 23.5908C7.97161 24.3175 7.74781 30.0022 12.3412 31.9016L14.5309 32.8071C16.5482 33.6413 18.8095 33.2691 20.0856 31.8924C20.2471 31.7183 20.3899 31.5306 20.5127 31.3317L21.4404 29.8272C22.6533 27.8604 23.0692 25.5351 22.6281 23.1892L20.3368 11.0087L18.465 20.1246C18.1344 21.7347 16.7614 22.9399 14.9208 23.2357L13.8115 23.4139Z" fill="#FA8D50"/>
<path d="M15.4517 23.7947L17.585 24.531C23.2206 26.4762 22.2818 33.8686 16.2306 35.1964C12.4731 36.021 8.70125 34.5054 7.06155 31.5122L3.31538 24.6736C2.40243 23.007 1.98492 21.1411 2.10076 19.2453L2.49765 12.7501L6.53034 20.2552C6.79881 20.7549 7.27271 21.1374 7.85944 21.328L15.4517 23.7947Z" fill="#DA5859"/>
</g>
<defs>
<clipPath id="clip0_186_1141">
<rect width="23.1429" height="36" fill="white" transform="translate(0.688477)"/>
</clipPath>
</defs>
</svg>
