<svg width="37" height="31" viewBox="0 0 37 31" fill="none" xmlns="http://www.w3.org/2000/svg">
<g clip-path="url(#clip0_186_1047)">
<path d="M8.26318 18.3569L10.736 22.6424L9.91128 15.3899L12.3841 19.6753L12.8784 17.0379L15.5164 26.2685L10.9012 27.5873L8.26318 18.3569Z" fill="#D9D9D9"/>
<path d="M16.1759 28.5759C17.4504 28.2117 18.1883 26.8833 17.824 25.6088C17.4598 24.3343 16.1314 23.5965 14.8569 23.9607C13.5825 24.3249 12.8446 25.6533 13.2088 26.9278C13.573 28.2023 14.9015 28.9401 16.1759 28.5759Z" fill="#D9D9D9"/>
<path d="M11.5606 29.8949C12.835 29.5307 13.5729 28.2023 13.2087 26.9278C12.8444 25.6534 11.516 24.9155 10.2416 25.2797C8.96711 25.644 8.22923 26.9724 8.59346 28.2468C8.95769 29.5213 10.2861 30.2592 11.5606 29.8949Z" fill="#D9D9D9"/>
<path d="M11.5963 14.0517L12.8781 9.27291L8.33288 14.9844L9.61462 10.2056L7.40021 11.721L12.0618 3.32872L16.2579 5.6595L11.5963 14.0517Z" fill="#D9D9D9"/>
<path d="M13.2272 1.23073C12.0685 0.587111 10.6074 1.00469 9.96375 2.16342C9.32013 3.32215 9.73771 4.78324 10.8964 5.42686C12.0552 6.07048 13.5163 5.6529 14.1599 4.49417C14.8035 3.33544 14.3859 1.87435 13.2272 1.23073Z" fill="#D9D9D9"/>
<path d="M17.4231 3.56136C16.2644 2.91775 14.8033 3.33533 14.1597 4.49406C13.5161 5.65279 13.9336 7.11388 15.0924 7.7575C16.2511 8.40111 17.7122 7.98353 18.3558 6.8248C18.9994 5.66607 18.5818 4.20498 17.4231 3.56136Z" fill="#D9D9D9"/>
<path d="M4.30671 13.2475L6.96467 14.9839L1.66937 12.7531L4.30671 13.2475Z" fill="#D9D9D9"/>
<path d="M5.17573 16.7425L8.04321 15.3796L3.37903 18.7355L5.17573 16.7425Z" fill="#D9D9D9"/>
<path d="M36.8313 14.4947L21.6886 21.0982C16.9449 23.1669 11.6377 19.6871 11.6434 14.5121C11.6491 9.35253 16.9348 5.88461 21.6701 7.93375L36.8313 14.4947Z" fill="url(#paint0_linear_186_1047)"/>
</g>
<defs>
<linearGradient id="paint0_linear_186_1047" x1="36.8313" y1="14.5421" x2="11.6313" y2="14.5421" gradientUnits="userSpaceOnUse">
<stop stop-color="#0CADF3" stop-opacity="0"/>
<stop offset="1" stop-color="#0CADF3" stop-opacity="0.8"/>
</linearGradient>
<clipPath id="clip0_186_1047">
<rect width="36" height="30.6" fill="white" transform="translate(0.831299)"/>
</clipPath>
</defs>
</svg>
