<svg width="37" height="37" viewBox="0 0 37 37" fill="none" xmlns="http://www.w3.org/2000/svg">
<path d="M18.6119 2.18353C19.4104 1.13097 20.9919 1.12803 21.7943 2.17762L32.6079 16.3232C36.4951 21.4081 29.9564 27.0972 20.232 27.0911C10.5368 27.085 4.02029 21.419 7.87077 16.3431L18.6119 2.18353Z" fill="#848484"/>
<circle cx="8.24701" cy="22.5911" r="1.5" fill="#848484"/>
<circle cx="14.247" cy="25.5911" r="1.5" fill="#848484"/>
<circle cx="29.247" cy="25.5911" r="1.5" fill="#848484"/>
<circle cx="23.247" cy="25.5911" r="1.5" fill="#848484"/>
<circle cx="26.247" cy="28.5911" r="1.5" fill="#848484"/>
<circle cx="17.247" cy="31.5911" r="1.5" fill="#848484"/>
<circle cx="8.24701" cy="28.5911" r="1.5" fill="#848484"/>
<circle cx="35.247" cy="22.5911" r="1.5" fill="#848484"/>
<circle cx="32.247" cy="34.5911" r="1.5" fill="#848484"/>
<circle cx="32.247" cy="26.1911" r="0.9" fill="#848484"/>
<circle cx="21.447" cy="29.7911" r="0.9" fill="#848484"/>
<circle cx="17.847" cy="27.9911" r="0.9" fill="#848484"/>
<circle cx="10.647" cy="26.1911" r="0.9" fill="#848484"/>
<circle cx="12.447" cy="31.5911" r="0.9" fill="#848484"/>
<circle cx="7.04697" cy="20.7911" r="0.9" fill="#848484"/>
<circle cx="2.24701" cy="25.5911" r="1.5" fill="#848484"/>
</svg>
