<svg width="20" height="20" viewBox="0 0 20 20" fill="none" xmlns="http://www.w3.org/2000/svg">
<path d="M10.866 18.5C10.4811 19.1667 9.51887 19.1667 9.13397 18.5L2.20577 6.5C1.82087 5.83333 2.30199 5 3.0718 5L16.9282 5C17.698 5 18.1791 5.83333 17.7942 6.5L10.866 18.5Z" fill="#BBD0E4"/>
<path d="M10.866 18.5C10.4811 19.1667 9.51887 19.1667 9.13397 18.5L4.80385 11C4.41895 10.3333 4.90007 9.5 5.66987 9.5L14.3301 9.5C15.0999 9.5 15.5811 10.3333 15.1962 11L10.866 18.5Z" fill="#A34C50"/>
<rect x="8" y="1" width="4" height="6" rx="2" fill="#BBD0E4"/>
<rect x="8" y="1" width="4" height="2" rx="1" fill="#A3714C"/>
</svg>
