<svg width="16" height="18" viewBox="0 0 16 18" fill="none" xmlns="http://www.w3.org/2000/svg">
<path d="M5.99578 4.93519L5.99145 4.90203L5.98329 4.87182C5.9832 4.87143 5.98306 4.87088 5.98288 4.87016C5.98211 4.867 5.98064 4.8608 5.97875 4.852C5.97493 4.83422 5.96964 4.80696 5.96493 4.77367C5.95495 4.70315 5.95029 4.62432 5.95802 4.55714C5.96102 4.5311 5.96511 4.51311 5.96858 4.50136C5.97636 4.50058 5.98666 4.49999 5.99996 4.49999H9.99998C10.0133 4.49999 10.0236 4.50058 10.0314 4.50137C10.0348 4.51311 10.0389 4.53112 10.0419 4.55718C10.0497 4.62435 10.045 4.70318 10.0351 4.77371C10.0303 4.80699 10.0251 4.83426 10.0212 4.85203C10.0193 4.86083 10.0179 4.86703 10.0171 4.87019C10.0169 4.8709 10.0168 4.87146 10.0167 4.87184L10.0086 4.90204L10.0042 4.93519L8.3854 17.3189C8.18775 17.5604 7.81219 17.5604 7.61454 17.3189L5.99578 4.93519ZM5.94801 4.50527C5.94795 4.50522 5.94871 4.50487 5.95048 4.50437C5.94896 4.50507 5.94807 4.50532 5.94801 4.50527ZM10.0519 4.50527C10.0519 4.50532 10.051 4.50507 10.0495 4.50437C10.0512 4.50487 10.052 4.50522 10.0519 4.50527Z" fill="#BBD0E4" stroke="#BBD0E4"/>
<path d="M7.24169 17.4147L6.28114 9.24998L9.71886 9.25L8.75831 17.4147C8.61442 17.6225 8.32708 17.75 8 17.75C7.67292 17.75 7.38558 17.6225 7.24169 17.4147Z" fill="#A34C50" stroke="#BBD0E4" stroke-width="0.5"/>
<path d="M9 2C9 0.89543 8.55228 0 8 0C7.44772 0 7 0.89543 7 2V4C7 5.10457 7.44772 6 8 6C8.55228 6 9 5.10457 9 4V2Z" fill="#BBD0E4"/>
<path d="M9 -1.14441e-05H7C6.44772 -1.14441e-05 6 0.447704 6 0.999989C6 1.55227 6.44772 1.99999 7 1.99999H9C9.55228 1.99999 10 1.55227 10 0.999989C10 0.447704 9.55228 -1.14441e-05 9 -1.14441e-05Z" fill="#A3714C"/>
</svg>
