<svg width="16" height="18" viewBox="0 0 16 18" fill="none" xmlns="http://www.w3.org/2000/svg">
<g clip-path="url(#clip0_386_44)">
<path d="M9 2.33333C9 1.04467 8.55228 0 8 0C7.44772 0 7 1.04467 7 2.33333V4.66667C7 5.95533 7.44772 7 8 7C8.55228 7 9 5.95533 9 4.66667V2.33333Z" fill="#BBD0E4"/>
<path d="M8.02934 17.2449L8.02936 5.99951C8.02936 3.09396 10.6052 1.41207 13.0241 2.73814V2.73814C15.4373 4.06104 16.2174 7.569 14.5394 9.55194L8.02934 17.2449Z" fill="#BBD0E4"/>
<path d="M8.02924 17.2571L1.49936 9.57936C-0.19419 7.58812 0.594787 4.0553 3.02827 2.73333V2.73333C5.45422 1.41544 8.02927 3.10301 8.02927 6.01075L8.02924 17.2571Z" fill="#BBD0E4"/>
<path d="M13.805 9.84356L8.00004 16.8676L2.1965 9.84531C1.86172 9.39857 1.60326 9.02612 1.41857 8.71155C1.23179 8.39342 1.12985 8.14995 1.0942 7.96016C1.0602 7.77916 1.08787 7.65793 1.15315 7.55948C1.21572 7.4651 1.32835 7.36831 1.51824 7.26959C3.62126 7.97055 4.77932 8.34994 6.40333 8.26079C8.03073 8.17145 10.126 7.61165 14.1661 6.491C14.3578 6.43781 14.5535 6.46533 14.6988 6.54794C14.8398 6.62814 14.9311 6.75708 14.9422 6.92579C14.9969 7.76153 14.694 8.70102 13.805 9.84356Z" fill="#A34C50" stroke="#BBD0E4" stroke-width="0.5"/>
<path d="M9 -1.14441e-05H7C6.44772 -1.14441e-05 6 0.447704 6 0.999989C6 1.55227 6.44772 1.99999 7 1.99999H9C9.55228 1.99999 10 1.55227 10 0.999989C10 0.447704 9.55228 -1.14441e-05 9 -1.14441e-05Z" fill="#A3714C"/>
</g>
<defs>
<clipPath id="clip0_386_44">
<rect width="16" height="18" fill="white"/>
</clipPath>
</defs>
</svg>
