<svg width="16" height="18" viewBox="0 0 16 18" fill="none" xmlns="http://www.w3.org/2000/svg">
<g clip-path="url(#clip0_386_60)">
<path d="M8.86601 17.5C8.48111 18.1667 7.51888 18.1667 7.13398 17.5L0.20578 5.49999C-0.17912 4.83332 0.302 3.99999 1.07181 3.99999H14.9282C15.698 3.99999 16.1791 4.83332 15.7942 5.49999L8.86601 17.5Z" fill="#BBD0E4"/>
<path d="M8.64951 17.375L8.6495 17.375C8.36083 17.875 7.63917 17.875 7.35049 17.375L7.13398 17.5L7.35049 17.375L3.02037 9.87499C3.02037 9.87499 3.02037 9.87499 3.02037 9.87499C2.73169 9.37495 3.09254 8.74999 3.66988 8.74999H12.3301C12.9075 8.74999 13.2684 9.37499 12.9797 9.87499L8.64951 17.375Z" fill="#A34C50" stroke="#BBD0E4" stroke-width="0.5"/>
<path d="M10 1.99999C10 0.895419 9.10457 -1.14441e-05 8 -1.14441e-05C6.89543 -1.14441e-05 6 0.895419 6 1.99999V3.99999C6 5.10456 6.89543 5.99999 8 5.99999C9.10457 5.99999 10 5.10456 10 3.99999V1.99999Z" fill="#BBD0E4"/>
<path d="M9 -1.14441e-05H7C6.44772 -1.14441e-05 6 0.447704 6 0.999989C6 1.55227 6.44772 1.99999 7 1.99999H9C9.55228 1.99999 10 1.55227 10 0.999989C10 0.447704 9.55228 -1.14441e-05 9 -1.14441e-05Z" fill="#A3714C"/>
</g>
<defs>
<clipPath id="clip0_386_60">
<rect width="16" height="18" fill="white"/>
</clipPath>
</defs>
</svg>
