<svg width="16" height="18" viewBox="0 0 16 18" fill="none" xmlns="http://www.w3.org/2000/svg">
<g clip-path="url(#clip0_386_17)">
<circle cx="7.5" cy="10.5" r="7.5" fill="#BBD0E4"/>
<path d="M8.94367 11.7436L8.94364 11.7437L8.95166 11.7453C10.8126 12.112 12.0593 12.1278 13.7098 11.6777C13.9711 11.6065 14.2191 11.6668 14.3828 11.7965C14.5411 11.9219 14.6283 12.1159 14.5761 12.3562C14.3599 13.3529 13.8794 14.7008 12.8163 15.7972C11.7601 16.8866 10.1076 17.75 7.5 17.75C5.68723 17.75 4.33867 17.3326 3.33258 16.7165C2.32583 16.1 1.64805 15.276 1.19069 14.4425C0.271935 12.768 0.250442 11.0685 0.250007 11.0014L0.249861 10.9887C0.238639 10.1702 0.453649 9.78696 0.755689 9.5226C0.917632 9.38086 1.11496 9.26445 1.3518 9.13818C1.40897 9.10771 1.46876 9.07651 1.53056 9.04426C1.71779 8.94656 1.92342 8.83925 2.12996 8.71357C2.70802 8.3618 3.20364 8.32463 3.67455 8.4592C4.16289 8.59874 4.64331 8.92797 5.16907 9.35397C5.34137 9.49358 5.51989 9.64487 5.70401 9.8009C6.0658 10.1075 6.44921 10.4324 6.84955 10.7231C7.46233 11.168 8.14757 11.5595 8.94367 11.7436Z" fill="#A34C50" stroke="#BBD0E4" stroke-width="0.5"/>
<path d="M9 1.99999C9 0.895419 8.32843 -1.14441e-05 7.5 -1.14441e-05C6.67157 -1.14441e-05 6 0.895419 6 1.99999V3.99999C6 5.10456 6.67157 5.99999 7.5 5.99999C8.32843 5.99999 9 5.10456 9 3.99999V1.99999Z" fill="#BBD0E4"/>
<path d="M8.25 0H6.75C6.33579 0 6 0.447715 6 1C6 1.55228 6.33579 2 6.75 2H8.25C8.66421 2 9 1.55228 9 1C9 0.447715 8.66421 0 8.25 0Z" fill="#A3714C"/>
</g>
<defs>
<clipPath id="clip0_386_17">
<rect width="16" height="18" fill="white"/>
</clipPath>
</defs>
</svg>
