<svg width="27" height="37" viewBox="0 0 27 37" fill="none" xmlns="http://www.w3.org/2000/svg">
<path d="M12.1166 28.6561L13.3561 26.901L12.9477 26.6126L14.1873 24.8575L14.5957 25.1459L15.8352 23.3908L15.4268 23.1024L16.6663 21.3472L17.0747 21.6357L18.3143 19.8806L17.9059 19.5921L19.1454 17.837L19.5538 18.1255L20.7934 16.3704L20.3849 16.0819L21.6245 14.3268L22.0329 14.6153L23.2724 12.8602L22.864 12.5717L24.1036 10.8166L24.512 11.1051L25.7515 9.34995L25.3431 9.0615L25.6744 8.59237L25.2053 8.26104L25.4937 7.85263L23.7386 6.61309L23.4502 7.0215L21.6951 5.78197L21.9835 5.37355L20.2284 4.13402L19.94 4.54243L19.4708 4.2111L19.1395 4.68024L18.7311 4.3918L17.4915 6.14691L17.9 6.43535L16.6604 8.19045L16.252 7.90201L15.0125 9.65712L15.4209 9.94556L14.1813 11.7007L13.7729 11.4122L12.5334 13.1673L12.9418 13.4558L11.7023 15.2109L11.2939 14.9224L10.0543 16.6775L10.4627 16.966L9.2232 18.7211L8.81478 18.4326L7.57525 20.1878L7.98366 20.4762L6.74412 22.2313L6.33571 21.9429L5.09617 23.698L5.50459 23.9864L5.17326 24.4555L5.6424 24.7869L5.35396 25.1953L7.10906 26.4348L7.3975 26.0264L9.15261 27.2659L8.86417 27.6744L10.6193 28.9139L10.9077 28.5055L11.3769 28.8368L11.7082 28.3677L12.1166 28.6561Z" stroke="#B9DEF8" stroke-dasharray="2 2"/>
<path d="M26.6564 3.41267L26.7705 1.38878L26.2713 1.36065L26.2833 1.14744L26.0864 1.23005L25.893 0.768997L24.0238 1.55331L24.2173 2.01436L22.3481 2.79868L22.1546 2.33762L20.2855 3.12193L20.4789 3.58299L20.3762 3.6261L20.5169 3.72546L20.2284 4.13387L21.9835 5.37345L22.272 4.96504L24.0271 6.20461L23.7386 6.61302L25.4937 7.85259L25.7822 7.44419L25.9228 7.54353L25.9291 7.4323L26.4283 7.46044L26.5424 5.43655L26.0432 5.40842L26.1572 3.38453L26.6564 3.41267Z" stroke="#B9DEF8" stroke-dasharray="2 2"/>
<path d="M1.87525 23.3507L13.5205 31.5752C13.12 31.8113 12.6017 31.8065 12.1974 31.5209L12.1974 31.5209L2.36878 24.5795C2.36877 24.5795 2.36877 24.5795 2.36876 24.5795C1.96441 24.2939 1.7866 23.8071 1.87525 23.3507Z" stroke="#B9DEF8"/>
<path d="M4.97373 34.923L4.9737 34.923C4.84424 35.1063 4.68509 35.2544 4.50775 35.3663L4.77453 35.7892C4.29366 36.0926 3.70812 36.1934 3.15347 36.0683L3.26347 35.5805C3.05892 35.5344 2.8594 35.4481 2.67607 35.3186L2.67604 35.3186L2.50052 35.1946L2.21209 35.603L1.86105 35.3551L2.14947 34.9467L1.97398 34.8228C1.79064 34.6933 1.64255 34.5341 1.53067 34.3567L1.10777 34.6235C0.804418 34.1426 0.703603 33.5571 0.828701 33.0024L1.31645 33.1124C1.36258 32.9079 1.44893 32.7083 1.57843 32.525L1.57845 32.525L2.04328 31.8668L1.63487 31.5784L2.56454 30.262L2.97295 30.5505L3.90261 29.2342L3.4942 28.9457L4.42387 27.6294L4.83228 27.9178L5.00867 27.6681L5.65328 28.1233L5.94173 27.7149L8.04778 29.2024L7.75934 29.6108L8.40396 30.0661L8.22756 30.3158L8.63598 30.6043L7.70631 31.9206L7.2979 31.6321L6.36823 32.9485L6.77664 33.2369L5.84697 34.5532L5.43856 34.2648L4.97373 34.923Z" stroke="#B9DEF8" stroke-dasharray="2 2"/>
</svg>
