<svg width="36" height="38" viewBox="0 0 36 38" fill="none" xmlns="http://www.w3.org/2000/svg">
<path d="M22.5905 24.9383C20.2667 27.3429 16.4767 27.3509 13.8534 25.2772L12.3616 24.0979C10.8897 22.9344 10.8449 20.7297 12.2005 19.4326C13.7574 17.9431 15.038 16.5494 16.2008 15.0293C18.7686 11.6725 23.5442 10.5039 26.8597 13.1249V13.1249C28.2727 14.2419 28.731 16.2043 27.8546 17.7779C26.2751 20.6138 24.7039 22.7514 22.5905 24.9383Z" fill="#6C6D6E"/>
<path d="M19.4235 28.482C17.0453 30.8792 13.2224 30.8735 10.5998 28.7464L9.14657 27.5677C7.70055 26.3949 7.66975 24.2085 9.0251 22.932C10.9606 21.1091 12.5102 19.4372 13.9326 17.5651C16.4826 14.2089 21.2703 13.1532 24.544 15.8083V15.8083C25.9659 16.9615 26.3914 18.9674 25.4685 20.5485C23.6286 23.7008 21.8433 26.0427 19.4235 28.482Z" fill="#BCC0C3"/>
<path d="M16.5914 31.0556C14.1169 33.407 10.2502 33.2846 7.6831 31.0345L6.90541 30.3529C5.51732 29.1362 5.55455 26.9728 6.93412 25.7465C9.14994 23.7768 10.8958 21.9912 12.5434 19.9271C14.9781 16.877 19.4541 16.1197 22.3889 18.6921V18.6921C23.6909 19.8333 24.004 21.7501 23.0617 23.2026C21.0285 26.3368 19.1237 28.6493 16.5914 31.0556Z" fill="#D9D9D9"/>
<path d="M14.8308 32.3556C12.3776 34.7371 8.49664 34.6111 5.92551 32.3575L5.80796 32.2544C4.4216 31.0393 4.45741 28.8805 5.82903 27.6487C7.82036 25.8604 9.40281 24.2261 10.9036 22.3392C13.1291 19.5408 17.2309 18.8537 19.9197 21.2104V21.2104C21.1162 22.2591 21.4017 24.0213 20.5341 25.3549C18.7238 28.1375 17.0276 30.223 14.8308 32.3556Z" fill="#F8F8F8"/>
<path d="M13.6379 26.3517C18.9601 20.5508 27.0591 9.89818 28.0132 3.93051" stroke="#2F2F2F"/>
</svg>
