<svg width="66" height="65" viewBox="0 0 66 65" fill="none" xmlns="http://www.w3.org/2000/svg">
<mask id="path-1-inside-1_392_75" fill="white">
<path d="M23 17H43V65H23V17Z"/>
</mask>
<path d="M23 17H43V65H23V17Z" fill="#913E43"/>
<path d="M43 65V67H45V65H43ZM23 65H21V67H23V65ZM41 17V65H45V17H41ZM43 63H23V67H43V63ZM25 65V17H21V65H25Z" fill="#A3904C" mask="url(#path-1-inside-1_392_75)"/>
<path d="M41 16C41 15.4477 41.4477 15 42 15C42.5523 15 43 15.4477 43 16H41ZM43 16V64H41V16H43Z" fill="#A3904C"/>
<path d="M23 16C23 15.4477 23.4477 15 24 15C24.5523 15 25 15.4477 25 16H23ZM25 16L25 64H23L23 16H25Z" fill="#A3904C"/>
<path d="M43 17L65 1V49L43 65V17Z" fill="#7A3438"/>
<path d="M63.2414 1C63.2414 0.447715 63.6891 0 64.2414 0C64.7937 0 65.2414 0.447715 65.2414 1L63.2414 1ZM65.2414 1V49H63.2414V1L65.2414 1Z" fill="#A3904C"/>
<line y1="-1" x2="27.2029" y2="-1" transform="matrix(-0.808736 0.588172 0.54733 0.836917 65 49)" stroke="#A3904C" stroke-width="2"/>
<path d="M23 17L1 1V49L23 65V17Z" fill="#A34C50"/>
<path d="M2.75861 1C2.75861 0.447715 2.31089 0 1.75861 0C1.20632 0 0.758606 0.447715 0.758606 1L2.75861 1ZM0.758606 1L0.758606 49H2.75861L2.75861 1L0.758606 1Z" fill="#A3904C"/>
<line y1="-1" x2="27.2029" y2="-1" transform="matrix(0.808736 0.588172 -0.54733 0.836917 1 49)" stroke="#A3904C" stroke-width="2"/>
</svg>
