<svg width="5" height="2" viewBox="0 0 5 2" fill="none" xmlns="http://www.w3.org/2000/svg">
<path d="M1.24 1.51407C1.10667 1.4874 0.986667 1.47407 0.88 1.47407C0.8 1.47407 0.706667 1.46073 0.6 1.43407C0.466667 1.38073 0.333333 1.31407 0.2 1.23407C0.0933333 1.15407 0.0533333 1.02073 0.08 0.834067C0.106667 0.674067 0.173333 0.5674 0.28 0.514067C0.413333 0.460734 0.546667 0.420734 0.68 0.394067C0.893333 0.394067 1.10667 0.4074 1.32 0.434067C1.53333 0.434067 1.74667 0.420734 1.96 0.394067C2.33333 0.394067 2.66667 0.394067 2.96 0.394067C3.25333 0.394067 3.58667 0.380733 3.96 0.354067C4.54667 0.300734 4.84 0.460734 4.84 0.834067C4.84 1.26073 4.58667 1.50073 4.08 1.55407H2.48H2C1.86667 1.55407 1.73333 1.55407 1.6 1.55407C1.46667 1.5274 1.34667 1.51407 1.24 1.51407Z" fill="white"/>
</svg>
