<svg width="10" height="12" viewBox="0 0 10 12" fill="none" xmlns="http://www.w3.org/2000/svg">
<g clip-path="url(#clip0_24_5401)">
<path d="M2.88 11.1799C2.656 11.2439 2.496 11.1799 2.4 10.9879C2.304 10.7639 2.304 10.5719 2.4 10.4119C2.464 10.3159 2.528 10.2199 2.592 10.1239C2.688 9.99594 2.784 9.89994 2.88 9.83594C3.104 9.67594 3.296 9.49994 3.456 9.30794C3.648 9.11594 3.856 8.93994 4.08 8.77994C4.56 8.36394 5.04 7.96394 5.52 7.57994C6 7.16394 6.48 6.76394 6.96 6.37994C7.056 6.28394 7.152 6.20394 7.248 6.13994C7.344 6.07594 7.44 6.01194 7.536 5.94794C7.856 5.69194 7.84 5.48394 7.488 5.32394C7.392 5.25994 7.296 5.21194 7.2 5.17994C7.104 5.14794 7.008 5.09994 6.912 5.03594C6.624 4.87594 6.336 4.73194 6.048 4.60394C5.76 4.47594 5.472 4.34794 5.184 4.21994C4.704 4.02794 4.24 3.80394 3.792 3.54794C3.376 3.29194 2.944 3.03594 2.496 2.77994C2.304 2.68394 2.112 2.60394 1.92 2.53994C1.728 2.44394 1.536 2.36394 1.344 2.29994C1.088 2.20394 0.831999 2.07594 0.575999 1.91594C0.415999 1.78794 0.335999 1.59594 0.335999 1.33994C0.335999 1.08394 0.431999 0.907942 0.623999 0.811942C0.815999 0.683942 1.024 0.683942 1.248 0.811942C1.504 0.939942 1.76 1.06794 2.016 1.19594C2.272 1.32394 2.528 1.45194 2.784 1.57994C2.976 1.67594 3.152 1.77194 3.312 1.86794C3.504 1.96394 3.68 2.09194 3.84 2.25194C3.872 2.28394 3.904 2.31594 3.936 2.34794C3.968 2.34794 4 2.36394 4.032 2.39594C4.384 2.55594 4.72 2.73194 5.04 2.92394C5.36 3.08394 5.68 3.24394 6 3.40394C6.352 3.56394 6.672 3.72394 6.96 3.88394C7.28 4.01194 7.616 4.15594 7.968 4.31594C8.16 4.41194 8.352 4.50794 8.544 4.60394C8.736 4.69994 8.912 4.81194 9.072 4.93994C9.136 4.97194 9.184 5.01994 9.216 5.08394C9.28 5.11594 9.344 5.16394 9.408 5.22794C9.6 5.51594 9.584 5.75594 9.36 5.94794C9.2 6.10794 9.056 6.23594 8.928 6.33194C8.8 6.42794 8.656 6.53994 8.496 6.66794C8.208 6.89194 7.904 7.11594 7.584 7.33994C7.296 7.53194 6.992 7.73994 6.672 7.96394C6.448 8.12394 6.24 8.29994 6.048 8.49194C5.856 8.68394 5.648 8.87594 5.424 9.06794C5.072 9.38794 4.736 9.70794 4.416 10.0279C4.128 10.3159 3.808 10.6199 3.456 10.9399C3.264 11.1319 3.072 11.2119 2.88 11.1799Z" fill="#D9D9D9"/>
</g>
<defs>
<clipPath id="clip0_24_5401">
<rect width="10" height="11" fill="white" transform="translate(0 0.5)"/>
</clipPath>
</defs>
</svg>
