<svg width="16" height="16" viewBox="0 0 16 16" fill="none" xmlns="http://www.w3.org/2000/svg">
<path d="M4.91637 15.5346C4.59055 15.6277 4.35782 15.5346 4.21818 15.2553C4.07855 14.9295 4.07855 14.6502 4.21818 14.4175C4.31128 14.2778 4.40437 14.1382 4.49746 13.9986C4.63709 13.8124 4.77673 13.6728 4.91637 13.5797C5.24219 13.3469 5.52146 13.0909 5.75418 12.8117C6.03346 12.5324 6.336 12.2764 6.66182 12.0437C7.36 11.4386 8.05818 10.8568 8.75637 10.2982C9.45455 9.69312 10.1527 9.1113 10.8509 8.55276C10.9905 8.41312 11.1302 8.29676 11.2698 8.20367C11.4095 8.11057 11.5491 8.01748 11.6887 7.92439C12.1542 7.55203 12.1309 7.24948 11.6189 7.01676C11.4793 6.92367 11.3396 6.85385 11.2 6.8073C11.0604 6.76076 10.9207 6.69094 10.7811 6.59785C10.3622 6.36512 9.94327 6.15567 9.52437 5.96948C9.10546 5.7833 8.68655 5.59712 8.26764 5.41094C7.56946 5.13167 6.89455 4.80585 6.24291 4.43348C5.63782 4.06112 5.00946 3.68876 4.35782 3.31639C4.07855 3.17676 3.79928 3.06039 3.52 2.9673C3.24073 2.82767 2.96146 2.7113 2.68219 2.61821C2.30982 2.47857 1.93746 2.29239 1.56509 2.05967C1.33237 1.87348 1.216 1.59421 1.216 1.22185C1.216 0.849482 1.35564 0.593482 1.63491 0.453845C1.91419 0.267664 2.21673 0.267664 2.54255 0.453845C2.91491 0.640027 3.28728 0.826209 3.65964 1.01239C4.032 1.19857 4.40437 1.38475 4.77673 1.57094C5.056 1.71057 5.312 1.85021 5.54473 1.98985C5.824 2.12948 6.08 2.31567 6.31273 2.54839C6.35928 2.59494 6.40582 2.64148 6.45237 2.68803C6.49891 2.68803 6.54546 2.7113 6.592 2.75785C7.104 2.99057 7.59273 3.24657 8.05818 3.52585C8.52364 3.75857 8.98909 3.9913 9.45455 4.22403C9.96655 4.45676 10.432 4.68948 10.8509 4.92221C11.3164 5.10839 11.8051 5.31785 12.3171 5.55057C12.5964 5.69021 12.8756 5.82985 13.1549 5.96948C13.4342 6.10912 13.6902 6.27203 13.9229 6.45821C14.016 6.50476 14.0858 6.57457 14.1324 6.66767C14.2255 6.71421 14.3185 6.78403 14.4116 6.87712C14.6909 7.29603 14.6676 7.64512 14.3418 7.92439C14.1091 8.15712 13.8996 8.3433 13.7135 8.48294C13.5273 8.62257 13.3178 8.78548 13.0851 8.97167C12.6662 9.29748 12.224 9.6233 11.7585 9.94912C11.3396 10.2284 10.8975 10.5309 10.432 10.8568C10.1062 11.0895 9.80364 11.3455 9.52437 11.6248C9.24509 11.904 8.94255 12.1833 8.61673 12.4626C8.10473 12.928 7.616 13.3935 7.15055 13.8589C6.73164 14.2778 6.26618 14.72 5.75418 15.1855C5.47491 15.4648 5.19564 15.5811 4.91637 15.5346Z" fill="#1E1E1E"/>
</svg>
