<svg width="250" height="57" viewBox="0 0 250 57" fill="none" xmlns="http://www.w3.org/2000/svg">
<path fill-rule="evenodd" clip-rule="evenodd" d="M249.603 23C242.065 22.1399 237.839 22.0265 230.301 23V40L211 57C226.292 55.7955 234.726 55.9054 249.603 57C249.555 56.572 249.508 56.15 249.463 55.7338C239.228 54.0308 232.906 53.6666 221.603 53.201L221.614 53.2005C232.418 52.7563 238.575 52.5031 249.196 53.1596C249.006 51.2164 248.855 49.3909 248.741 47.6363L232.103 45.201L248.606 45.201C248.464 42.0917 248.449 39.146 248.559 36.0764C243.554 37.1131 240.843 37.2149 236.603 37C241.54 36.1208 244.404 35.3861 248.669 33.6834C248.807 31.1923 249.022 28.5775 249.315 25.6972C243.501 24.6195 240.077 24.7579 234.103 25.5C239.464 24.2488 242.66 23.6228 249.579 23.2168L249.603 23Z" fill="#6C4D35"/>
<path d="M211.397 57C220.157 51.417 224.293 47.617 230.699 40H211.397C212.256 46.4977 212.258 50.2154 211.397 57Z" fill="#523A28"/>
<path fill-rule="evenodd" clip-rule="evenodd" d="M0 23C7.5379 21.7661 11.7637 21.6272 19.3015 23V40L38.6029 57C24.2583 55.7986 15.9263 55.601 0 57C0.064413 56.5694 0.126511 56.1449 0.186316 55.7261C10.3935 54.0298 16.714 53.6659 28 53.201L27.9893 53.2005C17.2278 52.7581 11.0775 52.5052 0.534027 53.1518C0.781724 51.1977 0.974814 49.3627 1.11593 47.5991L17.5 45.201L1.27821 45.201C1.4479 42.1097 1.45129 39.1803 1.30399 36.1299C6.14457 37.1166 8.83401 37.2111 13 37C8.15139 36.1366 5.30214 35.4126 1.16262 33.7743C0.983028 31.2528 0.708236 28.6061 0.346395 25.6864C6.12489 24.6204 9.54652 24.7604 15.5 25.5C10.1404 24.2491 6.94411 23.6231 0.0288945 23.2171L0 23Z" fill="#8F674A"/>
<path d="M38.603 57C28.9702 51.6801 24.8819 47.8721 19.3015 40H38.603C40.3197 46.1903 41.2239 49.6762 38.603 57Z" fill="#523A28"/>
<path fill-rule="evenodd" clip-rule="evenodd" d="M41.1481 0.296234C35.2601 0.222428 29.1988 0.141986 22.9304 0.0550063L22.5 9L22.0691 0.0430319L19 0C15.825 14.1692 15.7083 22.949 19 40H22.067L22.5 31L22.933 40H41.134C41.2782 36.5428 42.0243 34.8317 44 32C43.1571 35.259 42.7587 37.0614 42.866 40H60.067C59.1442 36.8627 60.4089 35.1151 63 32C61.4502 35.1184 60.7292 36.868 60.933 40H79.067C79.511 36.6513 79.0922 34.948 78 32C79.2894 35.0195 79.9398 36.7265 79.933 40H98.134C97.8101 34.6646 98.9041 32.1786 101.5 28C99.3013 32.7054 98.5965 35.337 99.866 40H117C119.086 34.9628 120.699 32.9688 124 29C124 29 119.067 40 118 40H136.067L138.5 34.5L136.933 40H154.134C154.384 36.9019 153.936 35.3085 153 32.5C154.567 35.1342 155.355 36.6704 155.866 40H171.067L168.5 35L171.933 40H193.134C193.545 37.0767 193.27 35.4335 192.5 32.5C194.125 35.367 194.718 37.0021 194.866 40H212.067V32L212.933 40H231C232.601 24.8835 232.658 16.1432 231 0C224.772 0.0917503 218.751 0.176263 212.906 0.253626L212.067 8V0.264692C206.331 0.340153 200.765 0.408694 195.338 0.470398C195.151 3.17657 194.538 4.78656 193 7.5C193.726 4.73409 194.012 3.11526 193.698 0.488893C152.002 0.954832 118.509 1.01336 79.9237 0.702953C79.84 3.53362 79.1939 5.2042 78 7.99999C79.0138 5.26357 79.4474 3.59959 79.1493 0.69668C73.2071 0.648204 67.1425 0.591016 60.9071 0.525255C60.8146 3.337 61.539 5.06027 63 8C60.5542 5.05946 59.2901 3.33746 59.9323 0.51492C54.3877 0.455821 48.707 0.389989 42.8563 0.31752C42.7884 3.07219 43.1879 4.85999 44 8C42.0816 5.25036 41.3225 3.55731 41.1481 0.296234ZM97.4214 13C95.2227 8.29463 94.5179 5.66303 95.7874 1H94.0554C93.7315 6.33542 94.8255 8.82139 97.4214 13ZM137.866 1L139.433 6.5L137 1H137.866ZM155 8.5C156.567 5.8658 157.355 4.32958 157.866 1H156.134C156.384 4.0981 155.936 5.69154 155 8.5ZM174.433 1L171 6L173.567 1H174.433Z" fill="#A3714C"/>
<path fill-rule="evenodd" clip-rule="evenodd" d="M41.1481 0.296234C35.2601 0.222428 29.1988 0.141986 22.9304 0.0550063L22.5 9L22.0691 0.0430319L19 0C15.825 14.1692 15.7083 22.949 19 40H22.067L22.5 31L22.933 40H41.134C41.2782 36.5428 42.0243 34.8317 44 32C43.1571 35.259 42.7587 37.0614 42.866 40H60.067C59.1442 36.8627 60.4089 35.1151 63 32C61.4502 35.1184 60.7292 36.868 60.933 40H79.067C79.511 36.6513 79.0922 34.948 78 32C79.2894 35.0195 79.9398 36.7265 79.933 40H98.134C97.8101 34.6646 98.9041 32.1786 101.5 28C99.3013 32.7054 98.5965 35.337 99.866 40H117C119.086 34.9628 120.699 32.9688 124 29C124 29 119.067 40 118 40H136.067L138.5 34.5L136.933 40H154.134C154.384 36.9019 153.936 35.3085 153 32.5C154.567 35.1342 155.355 36.6704 155.866 40H171.067L168.5 35L171.933 40H193.134C193.545 37.0767 193.27 35.4335 192.5 32.5C194.125 35.367 194.718 37.0021 194.866 40H212.067V32L212.933 40H231C232.601 24.8835 232.658 16.1432 231 0C224.772 0.0917503 218.751 0.176263 212.906 0.253626L212.067 8V0.264692C206.331 0.340153 200.765 0.408694 195.338 0.470398C195.151 3.17657 194.538 4.78656 193 7.5C193.726 4.73409 194.012 3.11526 193.698 0.488893C152.002 0.954832 118.509 1.01336 79.9237 0.702953C79.84 3.53362 79.1939 5.2042 78 7.99999C79.0138 5.26357 79.4474 3.59959 79.1493 0.69668C73.2071 0.648204 67.1425 0.591016 60.9071 0.525255C60.8146 3.337 61.539 5.06027 63 8C60.5542 5.05946 59.2901 3.33746 59.9323 0.51492C54.3877 0.455821 48.707 0.389989 42.8563 0.31752C42.7884 3.07219 43.1879 4.85999 44 8C42.0816 5.25036 41.3225 3.55731 41.1481 0.296234ZM97.4214 13C95.2227 8.29463 94.5179 5.66303 95.7874 1H94.0554C93.7315 6.33542 94.8255 8.82139 97.4214 13ZM137.866 1L139.433 6.5L137 1H137.866ZM155 8.5C156.567 5.8658 157.355 4.32958 157.866 1H156.134C156.384 4.0981 155.936 5.69154 155 8.5ZM174.433 1L171 6L173.567 1H174.433Z" fill="url(#paint0_linear_341_1342)" fill-opacity="0.5"/>
<path fill-rule="evenodd" clip-rule="evenodd" d="M41.1481 0.296234C35.2601 0.222428 29.1988 0.141986 22.9304 0.0550063L22.5 9L22.0691 0.0430319L19 0C15.825 14.1692 15.7083 22.949 19 40H22.067L22.5 31L22.933 40H41.134C41.2782 36.5428 42.0243 34.8317 44 32C43.1571 35.259 42.7587 37.0614 42.866 40H60.067C59.1442 36.8627 60.4089 35.1151 63 32C61.4502 35.1184 60.7292 36.868 60.933 40H79.067C79.511 36.6513 79.0922 34.948 78 32C79.2894 35.0195 79.9398 36.7265 79.933 40H98.134C97.8101 34.6646 98.9041 32.1786 101.5 28C99.3013 32.7054 98.5965 35.337 99.866 40H117C119.086 34.9628 120.699 32.9688 124 29C124 29 119.067 40 118 40H136.067L138.5 34.5L136.933 40H154.134C154.384 36.9019 153.936 35.3085 153 32.5C154.567 35.1342 155.355 36.6704 155.866 40H171.067L168.5 35L171.933 40H193.134C193.545 37.0767 193.27 35.4335 192.5 32.5C194.125 35.367 194.718 37.0021 194.866 40H212.067V32L212.933 40H231C232.601 24.8835 232.658 16.1432 231 0C224.772 0.0917503 218.751 0.176263 212.906 0.253626L212.067 8V0.264692C206.331 0.340153 200.765 0.408694 195.338 0.470398C195.151 3.17657 194.538 4.78656 193 7.5C193.726 4.73409 194.012 3.11526 193.698 0.488893C152.002 0.954832 118.509 1.01336 79.9237 0.702953C79.84 3.53362 79.1939 5.2042 78 7.99999C79.0138 5.26357 79.4474 3.59959 79.1493 0.69668C73.2071 0.648204 67.1425 0.591016 60.9071 0.525255C60.8146 3.337 61.539 5.06027 63 8C60.5542 5.05946 59.2901 3.33746 59.9323 0.51492C54.3877 0.455821 48.707 0.389989 42.8563 0.31752C42.7884 3.07219 43.1879 4.85999 44 8C42.0816 5.25036 41.3225 3.55731 41.1481 0.296234ZM97.4214 13C95.2227 8.29463 94.5179 5.66303 95.7874 1H94.0554C93.7315 6.33542 94.8255 8.82139 97.4214 13ZM137.866 1L139.433 6.5L137 1H137.866ZM155 8.5C156.567 5.8658 157.355 4.32958 157.866 1H156.134C156.384 4.0981 155.936 5.69154 155 8.5ZM174.433 1L171 6L173.567 1H174.433Z" fill="#A3714C"/>
<path fill-rule="evenodd" clip-rule="evenodd" d="M41.1481 0.296234C35.2601 0.222428 29.1988 0.141986 22.9304 0.0550063L22.5 9L22.0691 0.0430319L19 0C15.825 14.1692 15.7083 22.949 19 40H22.067L22.5 31L22.933 40H41.134C41.2782 36.5428 42.0243 34.8317 44 32C43.1571 35.259 42.7587 37.0614 42.866 40H60.067C59.1442 36.8627 60.4089 35.1151 63 32C61.4502 35.1184 60.7292 36.868 60.933 40H79.067C79.511 36.6513 79.0922 34.948 78 32C79.2894 35.0195 79.9398 36.7265 79.933 40H98.134C97.8101 34.6646 98.9041 32.1786 101.5 28C99.3013 32.7054 98.5965 35.337 99.866 40H117C119.086 34.9628 120.699 32.9688 124 29C124 29 119.067 40 118 40H136.067L138.5 34.5L136.933 40H154.134C154.384 36.9019 153.936 35.3085 153 32.5C154.567 35.1342 155.355 36.6704 155.866 40H171.067L168.5 35L171.933 40H193.134C193.545 37.0767 193.27 35.4335 192.5 32.5C194.125 35.367 194.718 37.0021 194.866 40H212.067V32L212.933 40H231C232.601 24.8835 232.658 16.1432 231 0C224.772 0.0917503 218.751 0.176263 212.906 0.253626L212.067 8V0.264692C206.331 0.340153 200.765 0.408694 195.338 0.470398C195.151 3.17657 194.538 4.78656 193 7.5C193.726 4.73409 194.012 3.11526 193.698 0.488893C152.002 0.954832 118.509 1.01336 79.9237 0.702953C79.84 3.53362 79.1939 5.2042 78 7.99999C79.0138 5.26357 79.4474 3.59959 79.1493 0.69668C73.2071 0.648204 67.1425 0.591016 60.9071 0.525255C60.8146 3.337 61.539 5.06027 63 8C60.5542 5.05946 59.2901 3.33746 59.9323 0.51492C54.3877 0.455821 48.707 0.389989 42.8563 0.31752C42.7884 3.07219 43.1879 4.85999 44 8C42.0816 5.25036 41.3225 3.55731 41.1481 0.296234ZM97.4214 13C95.2227 8.29463 94.5179 5.66303 95.7874 1H94.0554C93.7315 6.33542 94.8255 8.82139 97.4214 13ZM137.866 1L139.433 6.5L137 1H137.866ZM155 8.5C156.567 5.8658 157.355 4.32958 157.866 1H156.134C156.384 4.0981 155.936 5.69154 155 8.5ZM174.433 1L171 6L173.567 1H174.433Z" fill="url(#paint1_linear_341_1342)" fill-opacity="0.5"/>
<defs>
<linearGradient id="paint0_linear_341_1342" x1="84.4698" y1="9.5092e-07" x2="164.327" y2="40" gradientUnits="userSpaceOnUse">
<stop stop-opacity="0"/>
<stop offset="1"/>
</linearGradient>
<linearGradient id="paint1_linear_341_1342" x1="84.4698" y1="9.5092e-07" x2="164.327" y2="40" gradientUnits="userSpaceOnUse">
<stop stop-opacity="0"/>
<stop offset="1"/>
</linearGradient>
</defs>
</svg>
