<svg width="19" height="22" viewBox="0 0 19 22" fill="none" xmlns="http://www.w3.org/2000/svg">
<ellipse cx="0.5" cy="1.81679" rx="0.5" ry="1.81679" transform="matrix(-0.989319 -0.145767 -0.145767 0.989319 9.65759 9.46209)" fill="#C9C8C8"/>
<path d="M8.94946 7.25691H7.39712C7.50971 9.14524 7.5164 10.1679 7.39712 11.9139H8.94946C8.7097 10.0953 8.70531 9.0756 8.94946 7.25691Z" fill="#D9D9D9"/>
<path d="M9.40027 2.8086L8.24907 2.6347C7.97679 4.3549 7.81419 5.31784 7.39721 7.01616L8.7384 7.19006C8.80489 5.45973 8.97276 4.5027 9.40027 2.8086Z" fill="#D9D9D9"/>
<ellipse cx="0.776172" cy="1.55234" rx="0.776172" ry="1.55234" transform="matrix(-1 0 0 1 8.9494 5.70457)" fill="#D1CECE"/>
<path d="M8.17333 2.59987C7.95088 3.20317 8.48361 3.28089 8.76515 3.38471C9.04669 3.48852 9.45526 3.08361 9.67771 2.48031C9.90017 1.87702 9.85227 1.30379 9.57074 1.19998C9.2892 1.09617 8.39579 1.99658 8.17333 2.59987Z" fill="#D1CECE"/>
<path d="M7.21736 11.3805C7.30368 11.1364 7.48134 10.9353 7.71294 10.8195L7.75742 10.7973C8.45584 10.448 9.26713 10.9983 9.20104 11.7763L8.80657 16.4203C8.75655 17.0091 8.20958 17.4264 7.62848 17.3191L6.42295 17.0963C5.81846 16.9847 5.45689 16.3592 5.66183 15.7796L7.21736 11.3805Z" fill="#D9D9D9"/>
<ellipse cx="10.4538" cy="12.1866" rx="0.5" ry="1.81679" transform="rotate(-8.38168 10.4538 12.1866)" fill="#C9C8C8"/>
<path d="M10.4025 8.25691H11.9548C11.8422 10.1452 11.8355 11.1679 11.9548 12.9139H10.4025C10.6422 11.0953 10.6466 10.0756 10.4025 8.25691Z" fill="#D9D9D9"/>
<path d="M9.95166 3.8086L11.1029 3.6347C11.3751 5.3549 11.5377 6.31784 11.9547 8.01616L10.6135 8.19006C10.547 6.45973 10.3792 5.5027 9.95166 3.8086Z" fill="#D9D9D9"/>
<ellipse cx="11.1787" cy="8.25692" rx="0.776172" ry="1.55234" fill="#D1CECE"/>
<path d="M11.1786 3.59987C11.4011 4.20317 10.8683 4.28089 10.5868 4.38471C10.3052 4.48852 9.89667 4.08361 9.67422 3.48031C9.45176 2.87702 9.49965 2.30379 9.78119 2.19998C10.0627 2.09617 10.9561 2.99658 11.1786 3.59987Z" fill="#D1CECE"/>
<path d="M12.1346 12.3805C12.0482 12.1364 11.8706 11.9353 11.639 11.8195L11.5945 11.7973C10.8961 11.448 10.0848 11.9983 10.1509 12.7763L10.5454 17.4203C10.5954 18.0091 11.1423 18.4264 11.7234 18.3191L12.929 18.0963C13.5335 17.9847 13.895 17.3592 13.6901 16.7796L12.1346 12.3805Z" fill="#D9D9D9"/>
<path d="M0.5 13H3L4 16V13H6.5L7.5 22H3V18L2 22H0L0.5 13Z" fill="#D9D9D9"/>
<path d="M18.5 13H15L14 16V13H12.5L11.5 22H15L16 19V22H19L18.5 13Z" fill="#D9D9D9"/>
<path d="M12.5 13H13.5L12.5 22H11.5L12.5 13Z" fill="#E4DB8C"/>
<path d="M12.5 13H13.5L12.5 22H11.5L12.5 13Z" fill="#E4DB8C"/>
<path d="M7.5 13H6.5L7.5 22H8.5L7.5 13Z" fill="#E4DB8C"/>
<path d="M7.5 13H6.5L7.5 22H8.5L7.5 13Z" fill="#E4DB8C"/>
</svg>
