<svg width="22" height="22" viewBox="0 0 22 22" fill="none" xmlns="http://www.w3.org/2000/svg">
<path d="M14.0382 13.713C12.5038 15.4062 9.89418 15.3951 8.10165 13.978V13.978C7.09592 13.183 7.06851 11.6792 7.98265 10.7803C8.7343 10.0413 9.37117 9.33343 9.95567 8.56933C11.4141 6.6628 14.1264 5.99912 16.0095 7.48771V7.48771C16.812 8.12211 17.0723 9.23672 16.5745 10.1304C15.7941 11.5316 15.0173 12.6326 14.0382 13.713Z" fill="#6C6D6E"/>
<path d="M12.2442 15.7358C10.6688 17.4114 8.04869 17.3935 6.26243 15.9447V15.9447C5.27756 15.1459 5.25871 13.6593 6.17222 12.7797C7.13754 11.8503 7.93239 10.977 8.66743 10.0096C10.1157 8.10342 12.835 7.50379 14.6943 9.01179V9.01179C15.5018 9.66677 15.7435 10.806 15.2194 11.704C14.2939 13.2896 13.3928 14.5141 12.2442 15.7358Z" fill="#BCC0C3"/>
<path d="M10.4428 17.4162C8.90319 18.919 6.45898 18.8351 4.84105 17.417V17.417C3.9662 16.6502 3.99003 15.2882 4.85542 14.5107C6.03729 13.449 6.98337 12.4724 7.87842 11.3511C9.2612 9.61876 11.8034 9.18866 13.4702 10.6497V10.6497C14.2097 11.2978 14.3875 12.3865 13.8524 13.2114C12.7697 14.8804 11.7511 16.1392 10.4428 17.4162Z" fill="#D9D9D9"/>
<path d="M9.2177 18.3709C7.80438 19.7491 5.56233 19.6754 4.07784 18.3743V18.3743C3.2774 17.6727 3.29804 16.4266 4.08936 15.7147C5.2089 14.7076 6.10085 13.7851 6.94708 12.7211C8.21111 11.1317 10.5407 10.7414 12.0679 12.08V12.08C12.7474 12.6756 12.9096 13.6764 12.4168 14.4339C11.3997 15.9973 10.446 17.1732 9.2177 18.3709Z" fill="#F8F8F8"/>
<path d="M8.50006 15C11.5228 11.7053 16.1227 5.65508 16.6646 2.2657" stroke="#2F2F2F"/>
</svg>
