<svg width="34" height="36" viewBox="0 0 34 36" fill="none" xmlns="http://www.w3.org/2000/svg">
<g clip-path="url(#clip0_186_1168)">
<path d="M32.8563 18C32.8563 18.523 32.596 19.135 31.8823 19.81C31.1661 20.4873 30.0695 21.1491 28.6209 21.7284C25.7303 22.8847 21.6597 23.625 17.1063 23.625C12.5529 23.625 8.48237 22.8847 5.5917 21.7284C4.14326 21.1491 3.04659 20.4873 2.33044 19.81C1.61666 19.135 1.35632 18.523 1.35632 18C1.35632 17.477 1.61666 16.865 2.33044 16.19C3.04659 15.5127 4.14326 14.8509 5.5917 14.2716C8.48237 13.1153 12.5529 12.375 17.1063 12.375C21.6597 12.375 25.7303 13.1153 28.6209 14.2716C30.0695 14.8509 31.1661 15.5127 31.8823 16.19C32.596 16.865 32.8563 17.477 32.8563 18Z" stroke="#5C6CFB"/>
<path d="M17.1063 22.5C18.9703 22.5 20.4813 20.4853 20.4813 18C20.4813 15.5147 18.9703 13.5 17.1063 13.5C15.2424 13.5 13.7313 15.5147 13.7313 18C13.7313 20.4853 15.2424 22.5 17.1063 22.5Z" fill="#5C6CFB"/>
<path d="M17.1063 6.75C18.9703 6.75 20.4813 5.23896 20.4813 3.375C20.4813 1.51104 18.9703 0 17.1063 0C15.2424 0 13.7313 1.51104 13.7313 3.375C13.7313 5.23896 15.2424 6.75 17.1063 6.75Z" fill="#5C6CFB"/>
<path d="M17.1063 36C18.9703 36 20.4813 34.489 20.4813 32.625C20.4813 30.761 18.9703 29.25 17.1063 29.25C15.2424 29.25 13.7313 30.761 13.7313 32.625C13.7313 34.489 15.2424 36 17.1063 36Z" fill="#5C6CFB"/>
</g>
<defs>
<clipPath id="clip0_186_1168">
<rect width="33.75" height="36" fill="white" transform="translate(0.231323)"/>
</clipPath>
</defs>
</svg>
