<svg width="37" height="30" viewBox="0 0 37 30" fill="none" xmlns="http://www.w3.org/2000/svg">
<path d="M17.2073 26.1508V14.4682C17.2073 10.8248 20.9432 8.37668 24.2837 9.83104C27.6161 11.2818 28.3762 15.669 25.7259 18.1561L17.2073 26.1508Z" fill="#A34C50"/>
<path d="M26.7163 10.4094L25.3492 8.62234L4.22909 24.7784L5.59614 26.5655L26.7163 10.4094Z" fill="#D9D9D9"/>
<path d="M2.80042 27.2873L4.22894 24.7784L5.59599 26.5655L2.80042 27.2873Z" fill="#D9D9D9"/>
<path d="M27.5563 4.10119L33.0245 11.2496C31.0506 12.7595 28.2264 12.3834 26.7164 10.4095L23.9822 6.8353L27.5563 4.10119Z" fill="#CD7C4F"/>
<path d="M35.6517 3.57415L34.2847 1.78706L28.9234 5.88821L30.2905 7.67529L35.6517 3.57415Z" fill="#A3714C"/>
<path d="M17.2067 26.1643L8.66959 18.1928C5.99526 15.6955 6.76292 11.2746 10.1226 9.82514C13.4722 8.38003 17.2067 10.8361 17.2067 14.4841L17.2067 26.1643Z" fill="#A34C50"/>
</svg>
