<svg width="16" height="20" viewBox="0 0 16 20" fill="none" xmlns="http://www.w3.org/2000/svg">
<circle cx="8" cy="6" r="3.5" stroke="#CEC2AE"/>
<path d="M4 11.5H12C13.933 11.5 15.5 13.067 15.5 15V16.5H0.5V15C0.5 13.067 2.067 11.5 4 11.5Z" stroke="#CEC2AE"/>
<rect x="14.4445" y="15.2" width="3.88889" height="12" transform="rotate(-180 14.4445 15.2)" fill="#BCC0C3"/>
<mask id="path-4-inside-1_7_2971" fill="white">
<path d="M12.9117 15.4343H12.134L12.134 3.43433H12.9117L12.9117 15.4343Z"/>
</mask>
<path d="M12.9117 15.4343H12.134L12.134 3.43433H12.9117L12.9117 15.4343Z" fill="#BCC0C3"/>
<path d="M13.134 15.4343L13.134 3.43433H11.134L11.134 15.4343H13.134ZM11.9117 3.43433L11.9117 15.4343H13.9117L13.9117 3.43433H11.9117Z" fill="#A9ACAE" mask="url(#path-4-inside-1_7_2971)"/>
<path d="M12.5 0L10.5556 3.2L14.4445 3.2L12.5 0Z" fill="#BCC0C3"/>
<path d="M16 15.2C16 15.6418 15.6418 16 15.2 16H9.8C9.35817 16 9 15.6418 9 15.2V15.2H16V15.2Z" fill="#CF9265"/>
<path d="M13.6666 19C13.6666 19.5523 13.2189 20 12.6666 20H12.3333C11.781 20 11.3333 19.5523 11.3333 19V16H13.6666V19Z" fill="#A3714C"/>
</svg>
