<svg width="7" height="10" viewBox="0 0 7 10" fill="none" xmlns="http://www.w3.org/2000/svg">
<path d="M6.48 4.672C6.48 4.768 6.432 4.864 6.336 4.96C6.24 5.024 6.144 5.072 6.048 5.104C5.888 5.168 5.712 5.2 5.52 5.2C5.36 5.2 5.2 5.216 5.04 5.248C4.688 5.28 4.448 5.344 4.32 5.44C4.224 5.536 4.192 5.776 4.224 6.16C4.224 6.768 4.272 7.36 4.368 7.936C4.4 8.608 4.256 8.96 3.936 8.992C3.744 9.056 3.552 9.008 3.36 8.848C3.168 8.688 3.04 8.464 2.976 8.176C2.912 7.792 2.848 7.408 2.784 7.024C2.752 6.608 2.704 6.208 2.64 5.824C2.576 5.472 2.512 5.264 2.448 5.2C2.384 5.136 2.176 5.072 1.824 5.008C1.6 4.976 1.376 4.96 1.152 4.96C0.96 4.928 0.768 4.88 0.576 4.816C0.512 4.784 0.432 4.72 0.336 4.624C0.272 4.496 0.24 4.4 0.24 4.336C0.24 4.272 0.288 4.192 0.384 4.096C0.48 4 0.56 3.936 0.624 3.904C0.784 3.84 0.96 3.808 1.152 3.808C1.344 3.808 1.536 3.808 1.728 3.808C2.144 3.808 2.352 3.6 2.352 3.184C2.384 2.992 2.4 2.8 2.4 2.608C2.4 2.384 2.4 2.16 2.4 1.936C2.464 1.616 2.528 1.376 2.592 1.216C2.72 0.991999 2.896 0.895999 3.12 0.927999C3.344 0.927999 3.504 1.04 3.6 1.264C3.664 1.456 3.712 1.664 3.744 1.888C3.776 2.08 3.824 2.272 3.888 2.464C3.92 2.624 3.936 2.784 3.936 2.944C3.936 3.072 3.952 3.216 3.984 3.376C4.016 3.76 4.256 3.952 4.704 3.952C4.864 3.92 5.04 3.904 5.232 3.904C5.424 3.904 5.616 3.904 5.808 3.904C6.224 3.968 6.448 4.224 6.48 4.672Z" fill="white"/>
</svg>
