<svg width="28" height="20" viewBox="0 0 28 20" fill="none" xmlns="http://www.w3.org/2000/svg">
<path d="M8.96125 0.5H26C26.8284 0.5 27.5 1.17157 27.5 2V18C27.5 18.8284 26.8284 19.5 26 19.5H8.96125C8.50557 19.5 8.0746 19.2929 7.78995 18.937L1.38995 10.937C0.951685 10.3892 0.951684 9.61079 1.38995 9.06296L7.78995 1.06296C8.0746 0.707134 8.50557 0.5 8.96125 0.5Z" stroke="#F8F8F8"/>
<path d="M18.5869 6.654C18.7112 6.77831 18.8106 6.90261 18.8852 7.02692C18.9598 7.15123 19.0468 7.27553 19.1463 7.39984C19.4197 7.74789 19.6186 8.12081 19.7429 8.51859C19.8921 8.89151 19.9542 9.31414 19.9294 9.78651C19.9294 10.06 19.9542 10.3335 20.004 10.6069C20.0537 10.8804 20.091 11.1539 20.1158 11.4273C20.1656 12.024 20.1904 12.6331 20.1904 13.2546C20.2153 13.8513 20.2526 14.448 20.3023 15.0446C20.3272 15.3927 20.3396 15.7283 20.3396 16.0515C20.3644 16.3498 20.3893 16.673 20.4142 17.0211C20.4142 17.0957 20.4266 17.1827 20.4515 17.2821C20.4763 17.3816 20.4639 17.4562 20.4142 17.5059C20.3644 17.6053 20.2899 17.6923 20.1904 17.7669C20.1158 17.8664 20.0164 17.941 19.8921 17.9907C19.8175 18.0155 19.7181 17.9907 19.5938 17.9161C19.4694 17.8664 19.3824 17.8042 19.3327 17.7296C19.1835 17.481 19.109 17.1951 19.109 16.8719C19.0592 16.4493 19.0095 16.0142 18.9598 15.5667C18.9349 15.1192 18.9349 14.6717 18.9598 14.2242C19.0095 13.5778 18.9847 12.9439 18.8852 12.3223C18.8106 11.7008 18.7485 11.0669 18.6988 10.4205C18.6988 10.2962 18.6863 10.1719 18.6615 10.0475C18.6615 9.89838 18.6615 9.76164 18.6615 9.63734C18.6366 9.51303 18.6242 9.38873 18.6242 9.26442C18.6242 9.11525 18.5993 8.97852 18.5496 8.85421C18.475 8.63046 18.3756 8.40671 18.2513 8.18296C18.1269 7.93435 17.9405 7.78518 17.6919 7.73546C17.4433 7.68574 17.2319 7.76032 17.0579 7.95921C16.9088 8.13324 16.7472 8.3197 16.5731 8.51859C16.2251 8.91637 15.964 9.33901 15.79 9.78651C15.616 10.234 15.5041 10.7064 15.4544 11.2036C15.3301 12.1235 15.2679 13.0433 15.2679 13.9632C15.2679 14.8582 15.2928 15.7656 15.3425 16.6855C15.3674 17.2076 15.2431 17.5059 14.9696 17.5805C14.5718 17.6302 14.2983 17.4313 14.1492 16.9838C14.0746 16.7601 14.0373 16.5363 14.0373 16.3126C14.0373 15.3678 14.0249 14.4355 14 13.5157C14 12.5958 14.0622 11.6635 14.1865 10.7188C14.261 10.2464 14.3729 9.81137 14.5221 9.41359C14.6961 8.99095 14.9572 8.6056 15.3052 8.25755C15.529 8.05866 15.7278 7.84734 15.9019 7.62359C16.0759 7.37498 16.2624 7.12636 16.4613 6.87775C16.2624 6.67886 16.0635 6.50484 15.8646 6.35567C15.6657 6.18164 15.4668 6.00761 15.2679 5.83359C14.7707 5.41095 14.4724 4.93859 14.3729 4.4165C14.2735 3.89442 14.2486 3.34747 14.2983 2.77567C14.2983 2.67622 14.3481 2.52706 14.4475 2.32817C14.5221 2.20386 14.6215 2.11685 14.7458 2.06713C14.8701 1.99254 14.9944 1.98011 15.1188 2.02983C15.3425 2.179 15.4792 2.35303 15.529 2.55192C15.5787 2.75081 15.5911 2.9497 15.5663 3.14858C15.5663 3.32261 15.5787 3.50907 15.6035 3.70796C15.6284 4.27977 15.8149 4.71484 16.1629 5.01317C16.511 5.3115 16.8963 5.57254 17.319 5.79629C17.4681 5.84602 17.6173 5.82116 17.7665 5.72171C18.0648 5.49796 18.3258 5.23692 18.5496 4.93859C18.7733 4.64025 18.8976 4.27977 18.9225 3.85713C18.9225 3.73282 18.9225 3.59609 18.9225 3.44692C18.9225 3.29775 18.9474 3.14858 18.9971 2.99942C19.0468 2.57678 19.2581 2.36546 19.631 2.36546C19.7802 2.36546 19.9045 2.42761 20.004 2.55192C20.1283 2.67622 20.1904 2.83782 20.1904 3.03671C20.2153 3.60852 20.1656 4.14303 20.0413 4.64025C19.9169 5.13747 19.6435 5.59741 19.2208 6.02004C19.1214 6.09463 19.0219 6.19407 18.9225 6.31838C18.8231 6.41782 18.7112 6.5297 18.5869 6.654Z" fill="white"/>
</svg>
