<svg width="37" height="37" viewBox="0 0 37 37" fill="none" xmlns="http://www.w3.org/2000/svg">
<path fill-rule="evenodd" clip-rule="evenodd" d="M0.797571 8.83756C3.34633 6.2888 7.20431 5.57883 10.4934 7.05327L19.5388 11.1081C22.5909 12.4763 24.9983 14.9683 26.2603 18.0658L29.3808 25.7253C30.7261 29.0274 29.9614 32.8142 27.4401 35.3354C26.9162 35.8594 26.023 35.6387 25.8034 34.931L21.1995 20.0962C20.6388 18.2893 19.2586 16.8527 17.4756 16.2201L1.1573 10.4297C0.488717 10.1925 0.295932 9.3392 0.797571 8.83756ZM8.35204 6.5972L10.3448 7.26146L6.35927 11.247L4.36651 10.5827L8.35204 6.5972ZM29.6082 27.8534L28.9439 25.8606L24.9584 29.8461L25.6227 31.8389L29.6082 27.8534Z" fill="#D9D9D9"/>
</svg>
