<svg width="35" height="36" viewBox="0 0 35 36" fill="none" xmlns="http://www.w3.org/2000/svg">
<path d="M13.0678 33.3453C13.1076 33.8038 13.5116 34.1432 13.9701 34.1035C14.4286 34.0637 14.768 33.6597 14.7282 33.2012L13.0678 33.3453ZM26.6713 1.77558C13.0319 9.53391 12.1801 23.118 13.0678 33.3453L14.7282 33.2012C13.8522 23.1077 14.7641 10.4661 27.4953 3.22428L26.6713 1.77558Z" fill="url(#paint0_linear_186_1061)" fill-opacity="0.5"/>
<path d="M11.9419 26.8927L4.01492 23.4257C1.53167 22.3395 0.979403 19.062 2.9696 17.2222C4.95385 15.3878 8.16764 16.1841 9.06589 18.7327L11.9419 26.8927Z" fill="#A34C50"/>
<path d="M14.6281 26.905L17.4738 18.7325C18.3613 16.1838 21.571 15.3812 23.5537 17.2123C25.5313 19.0388 24.9943 22.293 22.5347 23.3873L14.6281 26.905Z" fill="#A34C50"/>
<path d="M30.8162 16.8846L25.3282 13.0996L13.973 29.5635L19.461 33.3485L30.8162 16.8846Z" fill="#BCC0C3"/>
<path d="M27.7128 14.2699L28.8103 15.0269L17.4552 31.4908L16.3577 30.7338L27.7128 14.2699Z" fill="#BCC0C3"/>
<mask id="mask0_186_1061" style="mask-type:luminance" maskUnits="userSpaceOnUse" x="16" y="14" width="13" height="18">
<path d="M27.7128 14.2699L28.8103 15.0269L17.4552 31.4908L16.3577 30.7338L27.7128 14.2699Z" fill="white"/>
</mask>
<g mask="url(#mask0_186_1061)">
<path d="M27.4383 14.0807L16.0833 30.5445L18.8272 32.4372L30.1823 15.9732L27.4383 14.0807ZM17.7297 31.6802L29.0848 15.2162L26.3408 13.3236L14.9857 29.7875L17.7297 31.6802Z" fill="#A9ACAE"/>
</g>
<path d="M13.689 35.8465L19.461 33.3487L13.9731 29.5635L13.689 35.8465Z" fill="#BCC0C3"/>
<path d="M23.1332 11.5856C23.5513 10.9794 24.3817 10.8269 24.9878 11.245L32.671 16.5441C33.2772 16.9622 33.4297 17.7925 33.0115 18.3987L23.1332 11.5856Z" fill="#CF9265"/>
<path d="M30.0218 8.64302C30.5443 7.88529 31.5823 7.69467 32.34 8.21729L32.8888 8.59579C33.6465 9.1184 33.8372 10.1563 33.3145 10.914L30.4757 15.03L27.183 12.759L30.0218 8.64302Z" fill="#A3714C"/>
<defs>
<linearGradient id="paint0_linear_186_1061" x1="25.2572" y1="1.65704" x2="11.2327" y2="32.0432" gradientUnits="userSpaceOnUse">
<stop stop-color="#848484"/>
<stop offset="1" stop-color="#1E1E1E"/>
</linearGradient>
</defs>
</svg>
