<svg width="19" height="21" viewBox="0 0 19 21" fill="none" xmlns="http://www.w3.org/2000/svg">
<path d="M5 0H14L19 21H0L5 0Z" fill="url(#paint0_linear_375_31)"/>
<path d="M7.36073 0.835601C7.4411 0.353413 7.85829 0 8.34713 0H9.5L9 6V12H6L6.5 6L7.36073 0.835601Z" fill="#E3B593"/>
<path d="M11.6393 0.835601C11.5589 0.353413 11.1417 0 10.6529 0H9.5L10 6V12H13L12.5 6L11.6393 0.835601Z" fill="#E3B593"/>
<path d="M5.8016 11.707C5.90194 11.1639 6.42354 10.805 6.96664 10.9053L8.44167 11.1779C8.98477 11.2782 9.3437 11.7998 9.24336 12.3429L8.46801 16.5398C8.36767 17.0829 7.84607 17.4418 7.30298 17.3414L5.82794 17.0689C5.28484 16.9686 4.92591 16.447 5.02625 15.9039L5.8016 11.707Z" fill="#CF9265"/>
<path d="M13.1234 11.7034C13.0231 11.1603 12.5015 10.8013 11.9584 10.9017L10.4834 11.1742C9.94028 11.2745 9.58135 11.7961 9.68169 12.3392L10.457 16.5361C10.5574 17.0792 11.079 17.4381 11.6221 17.3378L13.0971 17.0653C13.6402 16.9649 13.9991 16.4433 13.8988 15.9002L13.1234 11.7034Z" fill="#CF9265"/>
<path d="M0.5 12H6.5L7.5 21H0L0.5 12Z" fill="#D9D9D9"/>
<path d="M18.5 12H12.5L11.5 21H19L18.5 12Z" fill="#D9D9D9"/>
<path d="M12.5 12H13.5L12.5 21H11.5L12.5 12Z" fill="#FFF495"/>
<path d="M12.5 12H13.5L12.5 21H11.5L12.5 12Z" fill="#FFF495"/>
<path d="M7.5 12H6.5L7.5 21H8.5L7.5 12Z" fill="#FFF495"/>
<path d="M7.5 12H6.5L7.5 21H8.5L7.5 12Z" fill="#FFF495"/>
<defs>
<linearGradient id="paint0_linear_375_31" x1="9.5" y1="0" x2="9.5" y2="21" gradientUnits="userSpaceOnUse">
<stop stop-color="#FFEE51" stop-opacity="0.5"/>
<stop offset="1" stop-color="#FFEE51" stop-opacity="0"/>
</linearGradient>
</defs>
</svg>
