<svg width="6" height="26" viewBox="0 0 6 26" fill="none" xmlns="http://www.w3.org/2000/svg">
<path d="M0.28 24.48C0.333333 24.1333 0.4 23.7867 0.48 23.44C0.56 23.0933 0.626667 22.7467 0.68 22.4C0.733333 22.1333 0.773333 21.88 0.8 21.64C0.853333 21.4 0.906667 21.1467 0.96 20.88C1.04 20.4267 1.09333 19.9867 1.12 19.56C1.17333 19.1333 1.26667 18.6933 1.4 18.24C1.48 17.9467 1.53333 17.64 1.56 17.32C1.58667 17 1.62667 16.68 1.68 16.36C1.73333 16.0667 1.77333 15.8 1.8 15.56C1.82667 15.2933 1.86667 15.0133 1.92 14.72C1.97333 14.4 2.01333 14.08 2.04 13.76C2.06667 13.44 2.09333 13.1333 2.12 12.84C2.17333 12.5467 2.21333 12.2533 2.24 11.96C2.26667 11.6667 2.30667 11.3733 2.36 11.08C2.41333 10.7867 2.45333 10.4933 2.48 10.2C2.53333 9.88 2.58667 9.57333 2.64 9.28L2.76 8.68C2.86667 8.22667 2.96 7.77333 3.04 7.32C3.14667 6.86667 3.25333 6.41333 3.36 5.96C3.49333 5.37333 3.57333 4.8 3.6 4.24C3.65333 3.65333 3.69333 3.05333 3.72 2.44C3.74667 2.14667 3.78667 1.86666 3.84 1.6C3.89333 1.33333 3.94667 1.05333 4 0.76C4.05333 0.573332 4.13333 0.439998 4.24 0.359998C4.34667 0.279999 4.46667 0.239999 4.6 0.239999C4.97333 0.293332 5.18667 0.506665 5.24 0.879998C5.26667 0.933332 5.26667 0.973333 5.24 0.999999C5.24 0.999999 5.24 1.02667 5.24 1.08C5.21333 1.32 5.18667 1.56 5.16 1.8C5.13333 2.04 5.09333 2.28 5.04 2.52C5.04 2.65333 5.02667 2.8 5 2.96C5 3.12 4.98667 3.26667 4.96 3.4C4.93333 3.82667 4.89333 4.25333 4.84 4.68C4.81333 5.08 4.73333 5.49333 4.6 5.92C4.52 6.18667 4.45333 6.45333 4.4 6.72C4.37333 6.96 4.33333 7.2 4.28 7.44C4.2 7.81333 4.10667 8.2 4 8.6C3.89333 8.97333 3.8 9.34667 3.72 9.72C3.66667 10.0133 3.62667 10.2933 3.6 10.56C3.6 10.8267 3.57333 11.1067 3.52 11.4C3.49333 11.6133 3.46667 11.8133 3.44 12C3.41333 12.16 3.38667 12.3333 3.36 12.52C3.33333 12.7333 3.32 12.96 3.32 13.2C3.32 13.44 3.29333 13.6667 3.24 13.88C3.21333 14.4667 3.13333 15.04 3 15.6C2.92 16.16 2.84 16.72 2.76 17.28C2.68 17.8133 2.6 18.36 2.52 18.92C2.46667 19.2933 2.4 19.68 2.32 20.08C2.26667 20.48 2.21333 20.8667 2.16 21.24C2.10667 21.48 2.05333 21.72 2 21.96C1.94667 22.2 1.90667 22.44 1.88 22.68C1.82667 22.8933 1.8 23.0933 1.8 23.28C1.82667 23.4667 1.85333 23.6667 1.88 23.88C1.90667 24.1467 1.86667 24.3733 1.76 24.56C1.65333 24.72 1.52 24.8933 1.36 25.08C1.17333 25.2667 0.946667 25.2933 0.68 25.16C0.386667 25.0267 0.253333 24.8 0.28 24.48Z" fill="white"/>
</svg>
