<svg width="36" height="36" viewBox="0 0 36 36" fill="none" xmlns="http://www.w3.org/2000/svg">
<g clip-path="url(#clip0_186_1192)">
<path d="M18 35C27.3888 35 35 27.3888 35 18C35 8.61116 27.3888 1 18 1C8.61116 1 1 8.61116 1 18C1 27.3888 8.61116 35 18 35Z" stroke="url(#paint0_linear_186_1192)"/>
<path d="M18 35C27.3888 35 35 27.3888 35 18C35 8.61116 27.3888 1 18 1C8.61116 1 1 8.61116 1 18C1 27.3888 8.61116 35 18 35Z" stroke="url(#paint1_linear_186_1192)"/>
<path d="M18 29C24.0751 29 29 24.0751 29 18C29 11.9249 24.0751 7 18 7C11.9249 7 7 11.9249 7 18C7 24.0751 11.9249 29 18 29Z" stroke="url(#paint2_linear_186_1192)"/>
<path d="M18 29C24.0751 29 29 24.0751 29 18C29 11.9249 24.0751 7 18 7C11.9249 7 7 11.9249 7 18C7 24.0751 11.9249 29 18 29Z" stroke="url(#paint3_linear_186_1192)"/>
</g>
<defs>
<linearGradient id="paint0_linear_186_1192" x1="36" y1="18" x2="24" y2="18" gradientUnits="userSpaceOnUse">
<stop stop-color="#CD40FF"/>
<stop offset="1" stop-color="#7B2799" stop-opacity="0"/>
</linearGradient>
<linearGradient id="paint1_linear_186_1192" x1="12" y1="18" x2="2.10369e-07" y2="18" gradientUnits="userSpaceOnUse">
<stop stop-color="#CD40FF" stop-opacity="0"/>
<stop offset="1" stop-color="#CD40FF"/>
</linearGradient>
<linearGradient id="paint2_linear_186_1192" x1="30" y1="18" x2="22" y2="18" gradientUnits="userSpaceOnUse">
<stop stop-color="#CD40FF"/>
<stop offset="1" stop-color="#7B2799" stop-opacity="0"/>
</linearGradient>
<linearGradient id="paint3_linear_186_1192" x1="14" y1="18" x2="6" y2="18" gradientUnits="userSpaceOnUse">
<stop stop-color="#CD40FF" stop-opacity="0"/>
<stop offset="1" stop-color="#CD40FF"/>
</linearGradient>
<clipPath id="clip0_186_1192">
<rect width="36" height="36" fill="white"/>
</clipPath>
</defs>
</svg>
