<svg width="31" height="31" viewBox="0 0 31 31" fill="none" xmlns="http://www.w3.org/2000/svg">
<circle cx="15.6008" cy="15.6974" r="15" fill="#265E2F"/>
<path d="M5.25158 11.7644C5.12953 11.3264 5.25158 11.0135 5.61771 10.8258C6.04486 10.638 6.411 10.638 6.71611 10.8258C6.89917 10.9509 7.08224 11.0761 7.26531 11.2012C7.5094 11.389 7.69246 11.5767 7.8145 11.7644C8.11962 12.2024 8.45524 12.5779 8.82137 12.8908C9.1875 13.2662 9.52313 13.6729 9.82824 14.111C10.6215 15.0496 11.3843 15.9882 12.1166 16.9269C12.9099 17.8655 13.6726 18.8041 14.4049 19.7427C14.588 19.9305 14.7405 20.1182 14.8626 20.3059C14.9846 20.4936 15.1066 20.6814 15.2287 20.8691C15.7169 21.4948 16.1135 21.4636 16.4186 20.7752C16.5407 20.5875 16.6322 20.3998 16.6932 20.2121C16.7542 20.0243 16.8458 19.8366 16.9678 19.6489C17.2729 19.0857 17.5475 18.5225 17.7916 17.9593C18.0357 17.3962 18.2798 16.833 18.5239 16.2698C18.89 15.3312 19.3172 14.4238 19.8054 13.5478C20.2935 12.7343 20.7817 11.8896 21.2699 11.0135C21.4529 10.638 21.6055 10.2626 21.7275 9.88715C21.9106 9.51169 22.0632 9.13624 22.1852 8.76079C22.3683 8.26019 22.6124 7.75959 22.9175 7.25899C23.1616 6.94611 23.5277 6.78967 24.0159 6.78967C24.5041 6.78967 24.8397 6.9774 25.0227 7.35285C25.2668 7.7283 25.2668 8.13504 25.0227 8.57307C24.7787 9.07367 24.5346 9.57427 24.2905 10.0749C24.0464 10.5755 23.8023 11.0761 23.5582 11.5767C23.3751 11.9521 23.1921 12.2963 23.009 12.6092C22.8259 12.9846 22.5819 13.3288 22.2767 13.6417C22.2157 13.7042 22.1547 13.7668 22.0937 13.8294C22.0937 13.892 22.0632 13.9545 22.0021 14.0171C21.697 14.7054 21.3614 15.3625 20.9953 15.9882C20.6902 16.614 20.3851 17.2397 20.08 17.8655C19.7748 18.5538 19.4697 19.1796 19.1646 19.7427C18.9205 20.3685 18.6459 21.0255 18.3408 21.7139C18.1578 22.0893 17.9747 22.4648 17.7916 22.8402C17.6086 23.2157 17.395 23.5598 17.1509 23.8727C17.0899 23.9979 16.9983 24.0917 16.8763 24.1543C16.8153 24.2794 16.7237 24.4046 16.6017 24.5297C16.0525 24.9052 15.5948 24.8739 15.2287 24.4359C14.9236 24.123 14.6795 23.8414 14.4964 23.5911C14.3134 23.3408 14.0998 23.0592 13.8557 22.7464C13.4285 22.1832 13.0014 21.5887 12.5742 20.963C12.2081 20.3998 11.8115 19.8053 11.3843 19.1796C11.0792 18.7415 10.7436 18.3348 10.3774 17.9593C10.0113 17.5839 9.64517 17.1772 9.27904 16.7391C8.66882 16.0508 8.05859 15.3938 7.44837 14.768C6.89917 14.2048 6.31946 13.5791 5.70924 12.8908C5.34311 12.5153 5.19055 12.1399 5.25158 11.7644Z" fill="white"/>
</svg>
