<svg width="37" height="26" viewBox="0 0 37 26" fill="none" xmlns="http://www.w3.org/2000/svg">
<line x1="7.51689" y1="0.662349" x2="26.1242" y2="11.8267" stroke="black" stroke-opacity="0.7"/>
<line x1="1.00426" y1="6.24455" x2="19.6116" y2="17.4089" stroke="black" stroke-opacity="0.7"/>
<path d="M21.2151 11.3251C23.8851 12.8666 22.094 12.9769 21.5802 13.8669C21.0664 14.7569 21.0939 15.6577 18.424 14.1162C15.754 12.5747 11.3977 9.17466 11.9116 8.28469C12.4254 7.39471 18.5452 9.78361 21.2151 11.3251Z" fill="#A34C50"/>
<path d="M34.0224 20.6962L26.6042 10.6486C24.2803 7.50108 23.0849 9.86369 21.1324 13.2541C19.1858 16.6344 17.7409 18.8125 21.6158 19.2608L34.0224 20.6962Z" fill="#BCC0C3"/>
<path d="M33.9345 20.5809L26.8729 10.8337C24.7405 7.83353 23.8124 9.19597 22.2767 11.0794C21.215 13.1858 19.8498 14.2794 23.2018 15.7791L33.9345 20.5809Z" fill="#6C6D6E" fill-opacity="0.83"/>
<circle cx="10.981" cy="7.60366" r="2.2911" stroke="#BCC0C3"/>
<circle cx="10.981" cy="7.60366" r="2.2911" stroke="url(#paint0_linear_247_139)" stroke-opacity="0.5"/>
<defs>
<linearGradient id="paint0_linear_247_139" x1="12.6999" y1="4.81256" x2="9.26216" y2="10.3948" gradientUnits="userSpaceOnUse">
<stop/>
<stop offset="1" stop-opacity="0"/>
</linearGradient>
</defs>
</svg>
