<svg width="24" height="25" viewBox="0 0 24 25" fill="none" xmlns="http://www.w3.org/2000/svg">
<path d="M4.05318 8.78732C4.60964 6.56149 6.60955 5 8.90389 5H14.6894C16.9402 5 18.9136 6.50396 19.5104 8.67422L22.2604 18.6742C23.1358 21.8573 20.7406 25 17.4394 25H6.40389C3.15103 25 0.764245 21.9431 1.55318 18.7873L4.05318 8.78732Z" fill="#31404B"/>
<path d="M13 1H10C8.89543 1 8 1.89543 8 3V5C8 6.10457 8.89543 7 10 7H13C14.1046 7 15 6.10457 15 5V3C15 1.89543 14.1046 1 13 1Z" stroke="#31404B" stroke-width="2"/>
</svg>
