<svg width="9" height="23" viewBox="0 0 9 23" fill="none" xmlns="http://www.w3.org/2000/svg">
<g clip-path="url(#clip0_202_1646)">
<path d="M6.43195 7.43596C6.59195 7.59596 6.71995 7.75596 6.81595 7.91596C6.91195 8.07596 7.02395 8.23596 7.15195 8.39596C7.50395 8.84396 7.75995 9.32396 7.91995 9.83596C8.11195 10.316 8.19195 10.86 8.15995 11.468C8.15995 11.82 8.19195 12.172 8.25595 12.524C8.31995 12.876 8.36795 13.228 8.39995 13.58C8.46395 14.348 8.49595 15.132 8.49595 15.932C8.52795 16.7 8.57595 17.468 8.63995 18.236C8.67195 18.684 8.68795 19.116 8.68795 19.532C8.71995 19.916 8.75195 20.332 8.78395 20.78C8.78395 20.876 8.79995 20.988 8.83195 21.116C8.86395 21.244 8.84795 21.34 8.78395 21.404C8.71995 21.532 8.62395 21.644 8.49595 21.74C8.39995 21.868 8.27195 21.964 8.11195 22.028C8.01595 22.06 7.88795 22.028 7.72795 21.932C7.56795 21.868 7.45595 21.788 7.39195 21.692C7.19995 21.372 7.10395 21.004 7.10395 20.588C7.03995 20.044 6.97595 19.484 6.91195 18.908C6.87995 18.332 6.87995 17.756 6.91195 17.18C6.97595 16.348 6.94395 15.532 6.81595 14.732C6.71995 13.932 6.63995 13.116 6.57595 12.284C6.57595 12.124 6.55995 11.964 6.52795 11.804C6.52795 11.612 6.52795 11.436 6.52795 11.276C6.49595 11.116 6.47995 10.956 6.47995 10.796C6.47995 10.604 6.44795 10.428 6.38395 10.268C6.28795 9.97996 6.15995 9.69196 5.99995 9.40396C5.83995 9.08396 5.59995 8.89196 5.27995 8.82796C4.95995 8.76396 4.68795 8.85996 4.46395 9.11596C4.27195 9.33996 4.06395 9.57996 3.83995 9.83596C3.39195 10.348 3.05595 10.892 2.83195 11.468C2.60795 12.044 2.46395 12.652 2.39995 13.292C2.23995 14.476 2.15995 15.66 2.15995 16.844C2.15995 17.996 2.19195 19.164 2.25595 20.348C2.28795 21.02 2.12795 21.404 1.77595 21.5C1.26395 21.564 0.911954 21.308 0.719954 20.732C0.623954 20.444 0.575954 20.156 0.575954 19.868C0.575954 18.652 0.559954 17.452 0.527954 16.268C0.527954 15.084 0.607954 13.884 0.767954 12.668C0.863954 12.06 1.00795 11.5 1.19995 10.988C1.42395 10.444 1.75995 9.94796 2.20795 9.49996C2.49595 9.24396 2.75195 8.97196 2.97595 8.68396C3.19995 8.36396 3.43995 8.04396 3.69595 7.72396C3.43995 7.46796 3.18395 7.24396 2.92795 7.05196C2.67195 6.82796 2.41595 6.60396 2.15995 6.37996C1.51995 5.83596 1.13595 5.22796 1.00795 4.55596C0.879954 3.88396 0.847954 3.17996 0.911954 2.44396C0.911954 2.31596 0.975954 2.12396 1.10395 1.86796C1.19995 1.70796 1.32795 1.59596 1.48795 1.53196C1.64795 1.43596 1.80795 1.41996 1.96795 1.48396C2.25595 1.67596 2.43195 1.89996 2.49595 2.15596C2.55995 2.41196 2.57595 2.66796 2.54395 2.92396C2.54395 3.14796 2.55995 3.38796 2.59195 3.64396C2.62395 4.37996 2.86395 4.93996 3.31195 5.32396C3.75995 5.70796 4.25595 6.04396 4.79995 6.33196C4.99195 6.39596 5.18395 6.36396 5.37595 6.23596C5.75995 5.94796 6.09595 5.61196 6.38395 5.22796C6.67195 4.84396 6.83195 4.37996 6.86395 3.83596C6.86395 3.67596 6.86395 3.49996 6.86395 3.30796C6.86395 3.11596 6.89595 2.92396 6.95995 2.73196C7.02395 2.18796 7.29595 1.91596 7.77595 1.91596C7.96795 1.91596 8.12795 1.99596 8.25595 2.15596C8.41595 2.31596 8.49595 2.52396 8.49595 2.77996C8.52795 3.51596 8.46395 4.20396 8.30395 4.84396C8.14395 5.48396 7.79195 6.07596 7.24795 6.61996C7.11995 6.71596 6.99195 6.84396 6.86395 7.00396C6.73595 7.13196 6.59195 7.27596 6.43195 7.43596Z" fill="#973738"/>
</g>
<defs>
<clipPath id="clip0_202_1646">
<rect width="9" height="22" fill="white" transform="translate(0 0.5)"/>
</clipPath>
</defs>
</svg>
