<svg width="9" height="22" viewBox="0 0 9 22" fill="none" xmlns="http://www.w3.org/2000/svg">
<path d="M6.432 6.936C6.592 7.096 6.72 7.256 6.816 7.416C6.912 7.576 7.024 7.736 7.152 7.896C7.504 8.344 7.76 8.824 7.92 9.336C8.112 9.816 8.192 10.36 8.16 10.968C8.16 11.32 8.192 11.672 8.256 12.024C8.32 12.376 8.368 12.728 8.4 13.08C8.464 13.848 8.496 14.632 8.496 15.432C8.528 16.2 8.576 16.968 8.64 17.736C8.672 18.184 8.688 18.616 8.688 19.032C8.72 19.416 8.752 19.832 8.784 20.28C8.784 20.376 8.8 20.488 8.832 20.616C8.864 20.744 8.848 20.84 8.784 20.904C8.72 21.032 8.624 21.144 8.496 21.24C8.4 21.368 8.272 21.464 8.112 21.528C8.016 21.56 7.888 21.528 7.728 21.432C7.568 21.368 7.456 21.288 7.392 21.192C7.2 20.872 7.104 20.504 7.104 20.088C7.04 19.544 6.976 18.984 6.912 18.408C6.88 17.832 6.88 17.256 6.912 16.68C6.976 15.848 6.944 15.032 6.816 14.232C6.72 13.432 6.64 12.616 6.576 11.784C6.576 11.624 6.56 11.464 6.528 11.304C6.528 11.112 6.528 10.936 6.528 10.776C6.496 10.616 6.48 10.456 6.48 10.296C6.48 10.104 6.448 9.928 6.384 9.768C6.288 9.48 6.16 9.192 6 8.904C5.84 8.584 5.6 8.392 5.28 8.328C4.96 8.264 4.688 8.36 4.464 8.616C4.272 8.84 4.064 9.08 3.84 9.336C3.392 9.848 3.056 10.392 2.832 10.968C2.608 11.544 2.464 12.152 2.4 12.792C2.24 13.976 2.16 15.16 2.16 16.344C2.16 17.496 2.192 18.664 2.256 19.848C2.288 20.52 2.128 20.904 1.776 21C1.264 21.064 0.912 20.808 0.72 20.232C0.624 19.944 0.576 19.656 0.576 19.368C0.576 18.152 0.56 16.952 0.528 15.768C0.528 14.584 0.608 13.384 0.768 12.168C0.864 11.56 1.008 11 1.2 10.488C1.424 9.944 1.76 9.448 2.208 9C2.496 8.744 2.752 8.472 2.976 8.184C3.2 7.864 3.44 7.544 3.696 7.224C3.44 6.968 3.184 6.744 2.928 6.552C2.672 6.328 2.416 6.104 2.16 5.88C1.52 5.336 1.136 4.728 1.008 4.056C0.88 3.384 0.848 2.68 0.912 1.944C0.912 1.816 0.976 1.624 1.104 1.368C1.2 1.208 1.328 1.096 1.488 1.032C1.648 0.935999 1.808 0.919999 1.968 0.983999C2.256 1.176 2.432 1.4 2.496 1.656C2.56 1.912 2.576 2.168 2.544 2.424C2.544 2.648 2.56 2.888 2.592 3.144C2.624 3.88 2.864 4.44 3.312 4.824C3.76 5.208 4.256 5.544 4.8 5.832C4.992 5.896 5.184 5.864 5.376 5.736C5.76 5.448 6.096 5.112 6.384 4.728C6.672 4.344 6.832 3.88 6.864 3.336C6.864 3.176 6.864 3 6.864 2.808C6.864 2.616 6.896 2.424 6.96 2.232C7.024 1.688 7.296 1.416 7.776 1.416C7.968 1.416 8.128 1.496 8.256 1.656C8.416 1.816 8.496 2.024 8.496 2.28C8.528 3.016 8.464 3.704 8.304 4.344C8.144 4.984 7.792 5.576 7.248 6.12C7.12 6.216 6.992 6.344 6.864 6.504C6.736 6.632 6.592 6.776 6.432 6.936Z" fill="white"/>
</svg>
